<svg id="Layer_1" data-name="Layer 1" xmlns="http://www.w3.org/2000/svg" viewBox="0 0 232.13 67.45">
  <defs>
    <style>
      .cls-1 {
        fill: #fff;
      }
    </style>
  </defs>
  <title>Best&amp;amp;Lloyd_Logotype_white_1840</title>
  <g>
    <g>
      <path class="cls-1" d="M101,61l-1.9.72,0-.93L102,59.69v8h-1Z" transform="translate(-3.83 -3.21)"/>
      <path class="cls-1" d="M115.15,65c0,1.49-1.09,2.85-3.28,2.85s-3.28-1.26-3.28-2.72a3,3,0,0,1,2.16-2.62c-1.08-.49-2-1.13-2-2.4a2.89,2.89,0,0,1,3.18-2.82A2.74,2.74,0,0,1,115,60a2.94,2.94,0,0,1-1.92,2.54C114.18,63.06,115.15,63.72,115.15,65Zm-5.53,0c0,1.18.85,2,2.28,2s2.21-.74,2.21-1.8c0-1.25-1.28-1.74-2.57-2.3A2.46,2.46,0,0,0,109.62,65ZM114,60.13a1.93,1.93,0,0,0-2-2A1.9,1.9,0,0,0,109.79,60c0,1.15,1.22,1.64,2.5,2.18A2.3,2.3,0,0,0,114,60.13Z" transform="translate(-3.83 -3.21)"/>
      <path class="cls-1" d="M126,67.39v3.26h-1V67.39h-5l-.13-.7,5.26-7H126v6.78h1.56l.05,1Zm-1-6.13-3.85,5.16H125Z" transform="translate(-3.83 -3.21)"/>
      <path class="cls-1" d="M136.29,67.85a4.08,4.08,0,1,1,4-4.08A3.88,3.88,0,0,1,136.29,67.85Zm0-7.2a3.12,3.12,0,1,0,3,3.12A2.93,2.93,0,0,0,136.29,60.65Z" transform="translate(-3.83 -3.21)"/>
    </g>
    <g>
      <path class="cls-1" d="M23.44,18.37a8,8,0,0,0-1.83-2.18,5.59,5.59,0,0,0-1.88-1,7.66,7.66,0,0,0,.84-.56,6.16,6.16,0,0,0,1.24-1.15A4.51,4.51,0,0,0,22.64,12a5.91,5.91,0,0,0,.29-1.81A5.45,5.45,0,0,0,22,6.92a5.82,5.82,0,0,0-2.37-1.85,9.3,9.3,0,0,0-3-.89c-1-.13-3.06-.19-4.06-.19H4l.36.24A2.76,2.76,0,0,1,5.9,7V29.6c0,.71-.62,1.18-1.16,1.6-.14.11-.27.2-.38.3l-.28.25L3.83,32h11a17.31,17.31,0,0,0,3.66-.4,9,9,0,0,0,3.22-1.38A7.52,7.52,0,0,0,24,27.68a8,8,0,0,0,.88-3.84,11.73,11.73,0,0,0-.41-2.76A10.18,10.18,0,0,0,23.44,18.37Zm-14-1.66h4.68a8,8,0,0,1,5.44,1.78,6.9,6.9,0,0,1,2,5.43A6.3,6.3,0,0,1,21,26.48a5.22,5.22,0,0,1-3.37,3,8,8,0,0,1-2.55.4H9.45Zm8.88-3.16a4.29,4.29,0,0,1-1.47.76,5.06,5.06,0,0,1-1.68.28H9.45V6.11H14a7,7,0,0,1,2,.3,5.68,5.68,0,0,1,1.87.86,4.34,4.34,0,0,1,1.33,1.4,4.12,4.12,0,0,1,.51,2.06A3.44,3.44,0,0,1,18.33,13.55Z" transform="translate(-3.83 -3.21)"/>
      <path class="cls-1" d="M43.21,29.79H35V16.66h9.93l.69-2.12H35V6.09h7.66a9.81,9.81,0,0,1,4.67,1.32l.35.2L46,4H30l.18.21a3.88,3.88,0,0,0,.46.45,2,2,0,0,1,.86,1.7V29.61a2.24,2.24,0,0,1-.91,1.73l-.41.42L30,32H46.66l1.2-3.61-.29.16A10.41,10.41,0,0,1,43.21,29.79Z" transform="translate(-3.83 -3.21)"/>
      <path class="cls-1" d="M66.78,17.73a23,23,0,0,0-3.42-2C62,15.1,60.85,14.45,60,14a13,13,0,0,1-2.53-1.83,2.83,2.83,0,0,1-1-2.11A4.32,4.32,0,0,1,58,6.7a4.1,4.1,0,0,1,1.51-.92,6.37,6.37,0,0,1,3.84,0,11.73,11.73,0,0,1,2,.67,8.42,8.42,0,0,1,3.89,3l.32.44-.64-4.2-.06,0a17.94,17.94,0,0,0-3.65-1.59,15.35,15.35,0,0,0-3.94-.49,12,12,0,0,0-2.92.4,9.63,9.63,0,0,0-2.6,1.26,6.9,6.9,0,0,0-2,2.12,5.61,5.61,0,0,0-.79,3,5.37,5.37,0,0,0,1.1,3.3A12.31,12.31,0,0,0,56.67,16a38.72,38.72,0,0,0,3.44,1.93c1.06.53,2.28,1.16,3.39,1.83A13.27,13.27,0,0,1,66,21.84a3.47,3.47,0,0,1,1,2.48,6.1,6.1,0,0,1-.51,2.56A5.46,5.46,0,0,1,63,30a7.73,7.73,0,0,1-4.87,0,13.36,13.36,0,0,1-2.34-1.07A12.45,12.45,0,0,1,51.72,25l-.29-.44.51,4.8v.06l.06,0a23.5,23.5,0,0,0,3.65,1.92,14.8,14.8,0,0,0,4.06.82h.4a13.89,13.89,0,0,0,3.4-.42,10.68,10.68,0,0,0,3.39-1.34,7.35,7.35,0,0,0,2.36-2.54,7.77,7.77,0,0,0,1.26-3.78,6.12,6.12,0,0,0-1.09-3.68A11.6,11.6,0,0,0,66.78,17.73Z" transform="translate(-3.83 -3.21)"/>
      <path class="cls-1" d="M73.72,4,72.14,7.65l.51-.34a5.61,5.61,0,0,1,2.92-1.22h6.28V29.62a3.3,3.3,0,0,1-.91,2.16l-.21.22h5.72l-.21-.22a3.13,3.13,0,0,1-.88-1.94V6.09h6.25a6.7,6.7,0,0,1,2.94,1.15l.64.38L93.47,4Z" transform="translate(-3.83 -3.21)"/>
      <path class="cls-1" d="M117.65,25a12.18,12.18,0,0,0,.74-2.59,18.51,18.51,0,0,0,.23-2.87,24.21,24.21,0,0,0-.15-2.71,12.94,12.94,0,0,0-.27-2.22l0-.14c0-.13-.05-.26-.06-.36v-.3h-5.72l.44.25c2,1.08,3.17,2.14,3.52,3.15a16.51,16.51,0,0,1,.25,2.89V21a3.33,3.33,0,0,1-.13,1.13,4.42,4.42,0,0,1-.24,1.05,3.16,3.16,0,0,1-.22.5,60.79,60.79,0,0,1-4.65-4.27,51.5,51.5,0,0,1-4-4.6c.59-.28,1.18-.6,1.75-.91A10.68,10.68,0,0,0,111,12.53a7.47,7.47,0,0,0,1.42-1.75A4.87,4.87,0,0,0,113,8.43a4.51,4.51,0,0,0-.46-2.07,4.57,4.57,0,0,0-1.16-1.61,5.68,5.68,0,0,0-1.74-1,6.3,6.3,0,0,0-2.35-.54h-.11a7.34,7.34,0,0,0-2.41.4,5.76,5.76,0,0,0-2,1.12,5.45,5.45,0,0,0-1.85,4.14,8.45,8.45,0,0,0,.58,2.88,10.44,10.44,0,0,0,1.2,2.29,11.33,11.33,0,0,0-4.17,3.15,7.67,7.67,0,0,0-1.82,5.2,10.48,10.48,0,0,0,.76,4.05,9.3,9.3,0,0,0,2.14,3.18,9.82,9.82,0,0,0,3.32,2.06,12.18,12.18,0,0,0,4.07.7h.24a10.3,10.3,0,0,0,4.93-1.26,12.17,12.17,0,0,0,3.62-3.22c.9.71,1.89,1.42,2.93,2.12a33.92,33.92,0,0,0,3.37,2l.2,0,3.6-3.61-.35,0C124.83,28.55,122.13,28.46,117.65,25ZM101,18a6.69,6.69,0,0,1,1.5-1.3,12,12,0,0,1,1.57-.89,20.72,20.72,0,0,0,1.86,2.52c1,1.15,1.89,2.16,2.76,3.07,1,1.09,2.1,2.08,3,2.91a21.82,21.82,0,0,0,2.47,2.05,10.41,10.41,0,0,1-2.86,1.9,9,9,0,0,1-3.37.65,8.82,8.82,0,0,1-5.82-2.16,7.7,7.7,0,0,1-1.84-2.31,6.51,6.51,0,0,1-.7-3,4.45,4.45,0,0,1,.4-1.86A5.81,5.81,0,0,1,101,18Zm4.78-12.53a2.63,2.63,0,0,1,1.21-.28,4.16,4.16,0,0,1,1.44.25,3.06,3.06,0,0,1,1,.76,3.36,3.36,0,0,1,.66,1.1,4.37,4.37,0,0,1,.25,1.38,3.18,3.18,0,0,1-.39,1.57,4,4,0,0,1-1.07,1.11,7.82,7.82,0,0,1-1.5.84l-1.4.64c-.22-.29-.45-.59-.66-.91l-.16-.24c-.15-.23-.32-.47-.46-.71a3.8,3.8,0,0,1-.4-1,4.87,4.87,0,0,1-.15-1.32,6,6,0,0,1,.18-1.31,3.42,3.42,0,0,1,.54-1.1A2.24,2.24,0,0,1,105.73,5.47Z" transform="translate(-3.83 -3.21)"/>
      <path class="cls-1" d="M145.68,29.92H132.92V6.37A4.5,4.5,0,0,1,134,4.19l.17-.21h-6.06l.19.22a4.25,4.25,0,0,1,1.2,2.15v22.7a9.84,9.84,0,0,1,0,1.33,3.7,3.7,0,0,1-.3,1.22L129,32h19.52a.48.48,0,0,0,.47-.34s.82-2.09,1.21-3l.2-.47-.4.32A6.47,6.47,0,0,1,145.68,29.92Z" transform="translate(-3.83 -3.21)"/>
      <path class="cls-1" d="M151.2,23a6.75,6.75,0,0,1-1.55.16h-7.21v-16a3.76,3.76,0,0,1,1.1-2.88l.22-.22h-5.55l.19.22a4.45,4.45,0,0,1,1.29,3.1V22a10.14,10.14,0,0,1,0,1.35,4.08,4.08,0,0,1-.3,1.19V25h13.51l1-2.83-.56.2A19.94,19.94,0,0,1,151.2,23Z" transform="translate(-3.83 -3.21)"/>
      <path class="cls-1" d="M181.47,7.61a14.91,14.91,0,0,0-9.91-3.73h-.05a13.12,13.12,0,0,0-5.46,1.19,14.49,14.49,0,0,0-4.66,3.17,15.12,15.12,0,0,0-3.12,4.67,14.4,14.4,0,0,0-1.13,5.68,13.17,13.17,0,0,0,1.18,5.56,13,13,0,0,0,3.16,4.3,14.28,14.28,0,0,0,4.57,2.78,15.92,15.92,0,0,0,5.43.95h0A13.49,13.49,0,0,0,177,31a15.41,15.41,0,0,0,4.56-3.18,15.6,15.6,0,0,0,3.1-4.67,14.5,14.5,0,0,0,1.06-5.67,13,13,0,0,0-4.26-9.89Zm.49,11.7a12.08,12.08,0,0,1-.75,4.29h0a9.37,9.37,0,0,1-2.13,3.31A9.83,9.83,0,0,1,175.75,29a11.94,11.94,0,0,1-4.18.76l-.52,0a5.12,5.12,0,0,1-1.23-.16,11.33,11.33,0,0,1-2.65-1,11.63,11.63,0,0,1-2.65-2.19,11.7,11.7,0,0,1-2-2.78,13,13,0,0,1-1.15-3.25,16.23,16.23,0,0,1-.4-3.55,11.64,11.64,0,0,1,.73-4.33,9.48,9.48,0,0,1,2.15-3.29,9.28,9.28,0,0,1,3.31-2.13,11.44,11.44,0,0,1,4.12-.77h.22a9.75,9.75,0,0,1,4.26,1.18,12.31,12.31,0,0,1,2.77,2.18,11.55,11.55,0,0,1,1.86,2.83,14.13,14.13,0,0,1,1.15,3.27A17.34,17.34,0,0,1,182,19.31Z" transform="translate(-3.83 -3.21)"/>
      <path class="cls-1" d="M205.63,4.24l-7,12.24-7-12.24a.51.51,0,0,0-.44-.26h-5.67l.32.24a6,6,0,0,0,.79.48,5.92,5.92,0,0,1,2.28,2.13,4.14,4.14,0,0,0,.23.35c.13.21.29.45.43.71l6.59,11.38V30.36a7.66,7.66,0,0,1-.58,1.43l-.1.2h4.86l-.11-.2a7.63,7.63,0,0,1-.58-1.35V18.87l6.24-10.78.26-.47c.25-.44.45-.79.75-1.23l.11-.17.05-.08a6,6,0,0,1,2.24-1.91L209.8,4h-3.74A.55.55,0,0,0,205.63,4.24Z" transform="translate(-3.83 -3.21)"/>
      <path class="cls-1" d="M234.85,12.08a13.41,13.41,0,0,0-3.07-4.28A14.27,14.27,0,0,0,222.08,4h-9.52l.26.23a4.41,4.41,0,0,1,1.61,3.1V28.72c.14,1.29-1.23,2.55-1.83,3l-.28.23h9.53a14.2,14.2,0,0,0,10-4.1,14.16,14.16,0,0,0,3-4.65A14.08,14.08,0,0,0,236,17.58,13,13,0,0,0,234.85,12.08ZM232.17,19a11.85,11.85,0,0,1-.77,4.37,10,10,0,0,1-2.14,3.37,9.66,9.66,0,0,1-3.3,2.31,11.64,11.64,0,0,1-4.21.78H218V6.1h2.26a12.14,12.14,0,0,1,4.83,1,11.11,11.11,0,0,1,3.78,2.72,12.71,12.71,0,0,1,2.35,4.12A14.51,14.51,0,0,1,232.17,19Z" transform="translate(-3.83 -3.21)"/>
    </g>
  </g>
</svg>
