<?xml version="1.0" encoding="utf-8"?>
<!-- Generator: Adobe Illustrator 24.1.2, SVG Export Plug-In . SVG Version: 6.00 Build 0)  -->
<svg version="1.1" id="Layer_1" xmlns="http://www.w3.org/2000/svg" xmlns:xlink="http://www.w3.org/1999/xlink" x="0px" y="0px"
	 viewBox="0 0 52.4 78.5" style="enable-background:new 0 0 52.4 78.5;" xml:space="preserve">
<style type="text/css">
	.st0{fill:#191818;}
</style>
<path class="st0" d="M50.7,34.1L36.2,6.3C34,3,30.6,0.8,26.2,0.7c-3.6,0-7.5,1.3-9.9,5.6L1.7,34.1c-2,4.2-1.4,7.3,0.3,10.5
	l15.1,27.5c1.9,3.4,5,5.6,9.1,5.7c5.4-0.2,7.2-2.3,9.1-5.7l15.1-27.5C52.1,41.4,52.7,38.3,50.7,34.1z M49.6,42.3
	c0,0-10.7,18.4-16.5,27.1c-2.6,3.9-6.5,3.1-10-1.1c-0.9-1-16.8-22.6-19.6-26.5c-1.8-2.6-1.3-5.2-0.6-6.5L18.5,8.7
	C21,5,25.2,4.5,28.9,9c0,0,17.3,22.6,18.7,24.5C50.7,37.8,50.4,40.3,49.6,42.3z"/>
<path class="st0" d="M39.5,41.1c-0.3-1.2-0.7-2.3-1.3-3.3v0c-0.6-1-1.3-1.9-2.2-2.6c-0.5-0.4-1.1-0.8-1.8-1c0.2-0.1,0.4-0.3,0.6-0.4
	c0.6-0.4,1.1-0.9,1.5-1.4c0.4-0.5,0.8-1.1,1-1.8c0.2-0.7,0.4-1.4,0.4-2.3c0-1.7-0.4-3-1.1-4c-0.7-1-1.7-1.7-2.8-2.3
	c-1.1-0.5-2.3-0.8-3.7-1c-1.3-0.1-3.7-0.2-4.9-0.2H14.6c0,0,2.1,0.4,2.1,3.9v25.4c0,3.4-2.1,4.2-2.1,4.2h13c1.5,0,3-0.2,4.4-0.5
	c1.5-0.3,2.8-0.9,3.9-1.7c1.2-0.8,2.1-1.8,2.8-3.1c0.7-1.3,1.1-2.8,1.1-4.6C39.9,43.4,39.7,42.3,39.5,41.1z M21.5,36.3h5.2
	c2.7,0,4.8,0.7,6.4,2c1.5,1.3,2.3,3.4,2.3,6.2c0,1.1-0.2,2.1-0.6,2.9c-0.4,0.8-0.9,1.5-1.5,2.1c-0.6,0.6-1.4,1-2.3,1.3
	c-0.9,0.3-1.9,0.4-3,0.4h-6.4V36.3z M32.8,30.8c-0.3,0.5-0.7,1-1.1,1.3c-0.5,0.4-1,0.6-1.7,0.8c-0.6,0.2-1.3,0.3-1.9,0.3h-6.6v-9.4
	h5.1c0.8,0,1.6,0.1,2.4,0.3c0.8,0.2,1.5,0.5,2.2,1c0.6,0.4,1.1,1,1.5,1.6c0.4,0.6,0.6,1.4,0.6,2.3C33.2,29.7,33,30.3,32.8,30.8z"/>
</svg>
