<?xml version="1.0" encoding="utf-8"?>
<!-- Generator: Adobe Illustrator 24.1.2, SVG Export Plug-In . SVG Version: 6.00 Build 0)  -->
<svg version="1.1" id="Layer_1" xmlns="http://www.w3.org/2000/svg" xmlns:xlink="http://www.w3.org/1999/xlink" x="0px" y="0px"
	 viewBox="0 0 240 32" style="enable-background:new 0 0 240 32;" xml:space="preserve">
<style type="text/css">
	.st0{fill:#FFFFFF;}
</style>
<g>
	<g>
		<path class="st0" d="M20.7,16.1c-0.5-0.9-1.2-1.7-2-2.4c-0.6-0.5-1.2-0.8-1.9-1c0.3-0.2,0.5-0.3,0.8-0.5c0.5-0.4,0.9-0.8,1.3-1.3
			c0.4-0.5,0.7-1,0.9-1.6c0.2-0.6,0.3-1.3,0.3-2.1c0-1.5-0.3-2.7-1-3.6c-0.6-0.9-1.5-1.6-2.5-2c-1-0.5-2.1-0.8-3.2-0.9
			c-1.1-0.1-3.3-0.2-4.4-0.2H0.6c0,0,1.3,0.6,1.3,3.4v23.3C1.9,30,0.4,31,0.4,31h11c1.3,0,2.7-0.1,3.9-0.4c1.3-0.3,2.5-0.8,3.5-1.5
			c1-0.7,1.9-1.6,2.5-2.8c0.6-1.1,1-2.5,1-4.2c0-1-0.1-2-0.4-3C21.6,18,21.2,17,20.7,16.1z M16.2,9.6c-0.3,0.5-0.6,0.9-1,1.3
			c-0.4,0.3-1,0.6-1.5,0.8C13,11.9,12.4,12,11.8,12h-6V3h4.7c0.7,0,1.5,0.1,2.2,0.3c0.7,0.2,1.4,0.5,2,0.9c0.6,0.4,1,0.9,1.4,1.5
			c0.3,0.6,0.5,1.3,0.5,2.2C16.6,8.5,16.4,9.1,16.2,9.6z M18.5,22.1c0,1-0.2,2-0.5,2.7v0c-0.3,0.8-0.8,1.5-1.4,2
			c-0.6,0.5-1.3,0.9-2.1,1.2c-0.8,0.3-1.7,0.4-2.7,0.4H5.8v-14h4.8c2.4,0,4.4,0.6,5.8,1.9C17.8,17.6,18.5,19.5,18.5,22.1z"/>
		<path class="st0" d="M40.4,3c2.8,0,4.4,1,4.4,1l-1.6-3.5H26c0,0,1.3,0.8,1.3,3.5v23.3c0,2.6-1.5,3.7-1.5,3.7h18.1l1.4-3.7
			c0,0-1.9,1.3-4.8,1.3h-9.4v-14h10.9l0.8-2.5H31.1V3H40.4z"/>
		<path class="st0" d="M64.2,15.4L64.2,15.4c-1.1-0.8-2.4-1.5-3.7-2.2C59.2,12.6,58,12,57,11.3c-1.1-0.6-2-1.3-2.7-2
			c-0.7-0.6-1-1.4-1-2.2c0-0.7,0.1-1.4,0.4-2C54,4.6,54.4,4,54.8,3.6c0.5-0.4,1-0.7,1.6-1c1.2-0.4,2.5-0.5,4-0.1
			c0.7,0.2,1.4,0.4,2.1,0.7c2.8,1.3,4.7,3.9,4.7,3.9l-0.8-4.8l0-0.1l-0.2-0.1C65,1.5,63.7,1,62.4,0.6c-1.3-0.4-2.7-0.6-4.2-0.6
			c-1,0-2.1,0.1-3.1,0.4c-1.1,0.3-2,0.8-2.9,1.4c-0.9,0.6-1.6,1.4-2.2,2.3c-0.6,0.9-0.9,2-0.9,3.3c0,1.4,0.4,2.6,1.2,3.6
			c0.8,1,1.7,1.9,2.9,2.6c1.1,0.7,2.3,1.5,3.7,2.1c1.3,0.6,2.5,1.3,3.6,2c1.1,0.7,2,1.4,2.7,2.2c0.7,0.7,1,1.6,1,2.6
			c0,1-0.2,1.9-0.5,2.7c-0.3,0.8-0.8,1.5-1.4,2c-0.6,0.5-1.3,1-2.1,1.3c-0.8,0.3-1.7,0.4-2.7,0.4c-0.8,0-1.5-0.1-2.4-0.4
			c-0.8-0.3-1.6-0.7-2.4-1.1c-0.8-0.5-1.5-1-2.2-1.6c-0.7-0.6-1.3-1.2-1.8-1.8l-0.8-0.9l0.6,5.1l0.2,0.1c1.3,0.8,2.7,1.5,3.9,2.1
			c1.3,0.6,2.8,0.9,4.4,0.9c1.4,0,2.7-0.1,4.1-0.4c1.3-0.3,2.6-0.8,3.6-1.5c1.1-0.7,2-1.6,2.6-2.8c0.7-1.2,1-2.6,1-4.3
			c0-1.5-0.4-2.9-1.2-4C66.3,17.2,65.4,16.3,64.2,15.4z"/>
		<path class="st0" d="M118.8,26c-1.1-0.7-2.3-1.5-3.5-2.4c0.3-0.9,0.6-1.8,0.7-2.7c0.2-1,0.2-2.1,0.2-3.1c0-1-0.1-2-0.1-3
			c-0.1-1-0.2-2-0.4-2.9l0-0.3h-5.1l0.4,0.3c0,0,1.8,1.1,2.5,3.3c0.4,1.1,0.4,2.3,0.4,3.2c0,0.2,0,0.6,0,1c0,0.4-0.1,0.8-0.1,1.2
			c-0.1,0.4-0.1,0.8-0.3,1.1c-0.1,0.2-0.1,0.3-0.2,0.4c-1.7-1.4-3.2-2.9-4.7-4.5c-1.4-1.6-2.8-3.3-4.1-5c0.6-0.3,1.1-0.6,1.7-0.9
			c0.7-0.4,1.4-0.9,2-1.5c0.6-0.6,1.1-1.2,1.5-1.9c0.4-0.7,0.6-1.6,0.6-2.6c0-0.8-0.2-1.6-0.5-2.3c-0.3-0.7-0.7-1.3-1.2-1.7
			c-0.5-0.5-1.1-0.8-1.8-1.1c-0.7-0.3-1.4-0.4-2.3-0.4c-0.9,0-1.7,0.1-2.5,0.4c-0.8,0.3-1.5,0.7-2.1,1.2c-0.6,0.5-1.1,1.2-1.4,2
			C98.2,4.4,98,5.3,98,6.3c0,1,0.2,2,0.6,3.1c0.3,0.9,0.7,1.7,1.2,2.4c-1.7,0.8-3.2,1.9-4.3,3.3c-1.3,1.5-1.9,3.4-1.9,5.7
			c0,1.6,0.3,3.1,0.8,4.4c0.5,1.3,1.3,2.5,2.2,3.5c1,1,2.1,1.7,3.4,2.2c1.3,0.5,2.8,0.8,4.3,0.8c2,0,3.7-0.5,5.3-1.4
			c1.4-0.8,2.7-2,3.7-3.4c1,0.8,1.9,1.5,2.9,2.2c1.1,0.8,2.3,1.5,3.5,2.2l0.3,0.1l3.5-3.6l-0.7-0.2C121.3,27.3,119.9,26.7,118.8,26z
			 M101.9,27.3c-1-0.4-1.9-1-2.7-1.7c-0.8-0.7-1.4-1.6-1.9-2.5c-0.5-1-0.7-2-0.7-3.2c0-0.7,0.1-1.4,0.4-2c0.3-0.6,0.6-1.2,1.1-1.7
			c0.4-0.5,1-1,1.5-1.4c0.5-0.3,1-0.6,1.5-0.9c0.5,0.8,1.1,1.7,1.9,2.7c0.9,1.1,1.8,2.2,2.9,3.3c1,1.1,2,2.2,3.1,3.1
			c0.9,0.9,1.7,1.6,2.4,2.2c-0.7,0.9-1.5,1.5-2.6,2C106.3,28.1,104,28.2,101.9,27.3z M103.2,10.4c-0.2-0.3-0.4-0.6-0.6-0.9
			c-0.2-0.3-0.4-0.7-0.6-1c-0.2-0.3-0.3-0.7-0.4-1.1c-0.1-0.4-0.1-0.9-0.1-1.4c0-0.5,0.1-0.9,0.2-1.4c0.1-0.4,0.3-0.8,0.5-1.2
			c0.2-0.3,0.5-0.6,0.9-0.8c0.3-0.2,0.8-0.3,1.3-0.3c0.5,0,1,0.1,1.4,0.3c0.4,0.2,0.7,0.5,1,0.8c0.3,0.3,0.5,0.7,0.7,1.2
			c0.2,0.5,0.2,0.9,0.2,1.4c0,0.7-0.1,1.2-0.4,1.7c-0.3,0.5-0.6,0.8-1.1,1.2c-0.5,0.3-1,0.6-1.5,0.9C104.1,10,103.6,10.2,103.2,10.4
			z"/>
		<path class="st0" d="M180.9,4.2c-1.4-1.3-3.1-2.4-4.9-3.1c-1.8-0.7-3.8-1.1-5.8-1.1c-2.1,0-4.1,0.4-5.9,1.3
			c-1.9,0.9-3.5,2.1-4.9,3.5c-1.4,1.5-2.5,3.2-3.3,5.2c-0.8,2-1.2,4.1-1.2,6.3c0,2.3,0.4,4.3,1.3,6.2c0.8,1.9,2,3.5,3.4,4.8
			c1.4,1.3,3.1,2.4,4.9,3.1c1.9,0.7,3.8,1.1,5.8,1.1c2.1,0,4.1-0.4,5.9-1.3c1.8-0.9,3.5-2.1,4.9-3.5c1.4-1.5,2.5-3.2,3.3-5.2
			c0.8-2,1.2-4.1,1.2-6.3c0-2.3-0.4-4.3-1.3-6.2C183.5,7.1,182.3,5.5,180.9,4.2z M181.3,17.2c0,1.8-0.3,3.4-0.8,4.8
			c-0.5,1.4-1.3,2.6-2.3,3.6c-1,1-2.2,1.8-3.5,2.3c-1.5,0.6-3.1,0.9-4.9,0.8c-0.4,0-0.9-0.1-1.3-0.2c-1-0.3-1.9-0.6-2.8-1.1
			c-1.1-0.6-2.1-1.4-2.9-2.4c-0.8-0.9-1.5-2-2.1-3.1c-0.5-1.1-1-2.3-1.2-3.6c-0.3-1.2-0.4-2.6-0.4-3.9c0-1.8,0.3-3.4,0.8-4.8
			c0.5-1.4,1.3-2.6,2.3-3.6c1-1,2.1-1.8,3.5-2.3c1.4-0.6,2.9-0.8,4.6-0.8c0.1,0,0.3,0,0.4,0c0.4,0,0.8,0.1,1.2,0.2
			c1,0.3,2,0.6,2.9,1.1c1.1,0.6,2.1,1.4,2.9,2.4c0.8,0.9,1.5,1.9,2,3.1c0.5,1.1,0.9,2.3,1.2,3.6C181.2,14.6,181.3,15.9,181.3,17.2z"
			/>
		<path class="st0" d="M236.1,9.4c-0.8-1.8-1.9-3.4-3.3-4.7c-1.4-1.3-3-2.3-4.8-3.1c-1.8-0.7-3.7-1.1-5.7-1.1h-10.1
			c0,0,1.4,1.3,1.4,3.5v23.5c0,2.1-1.3,3.5-1.3,3.5h9.8c2.1,0,4.1-0.4,6-1.2c1.8-0.8,3.5-1.9,4.8-3.3c1.4-1.4,2.5-3.1,3.3-5
			c0.8-1.9,1.2-4,1.2-6.2C237.3,13.2,236.9,11.2,236.1,9.4z M233.1,16.9c0,1.7-0.3,3.3-0.8,4.7v0c-0.5,1.4-1.3,2.6-2.3,3.6
			c-1,1-2.1,1.8-3.5,2.4c-1.4,0.6-2.9,0.9-4.5,0.9h-4.5l0-25.5h2.8c1.9,0,3.7,0.4,5.2,1.1c1.6,0.7,2.9,1.7,4,2.9
			c1.1,1.2,2,2.7,2.6,4.4C232.8,13.1,233.1,15,233.1,16.9z"/>
		<path class="st0" d="M147.3,21.1h-7V4c0-1.9,0.8-3.5,0.8-3.5h-4.9c0,0,1,1.3,1,3.5v16.8c0,1.7-0.6,2.5-0.6,2.5h14l1.2-3.3
			C151.8,20,150.7,21.1,147.3,21.1z"/>
		<path class="st0" d="M144.5,28.5h-12.7V4c0-2,1-3.5,1-3.5H127c0,0,0.9,1.1,0.9,3.4v23c0,2.9-1.3,4.1-1.3,4.1h21.1l1.5-3.8
			C149.3,27.2,147.8,28.5,144.5,28.5z"/>
		<path class="st0" d="M91.5,0.5H70.4L69.1,4c0,0,1.4-1,4-1H79v24.3c0,3.3-1.5,3.7-1.5,3.7h6.3l0.6,0c0,0-1.5-0.7-1.5-3.7V3h5.9
			c2.7,0,4.1,1,4.1,1L91.5,0.5z"/>
		<path class="st0" d="M205.7,0.5C205.7,0.5,205.7,0.5,205.7,0.5L198,13.9l-7.8-13.4h-5.9c1.5,0.8,3,3,3.3,3.3
			c0.2,0.3,0.5,0.7,0.7,1.1l7,12.2v10.1c0,2.3-1.5,3.8-1.5,3.8h6.9c0,0-1.5-1.1-1.5-3.7l0-10.5l6.6-11.6c0.5-0.8,1.4-2.5,1.8-3.1
			c0.9-1.3,1.1-1.4,1.3-1.6H205.7z"/>
	</g>
</g>
</svg>
