<?xml version="1.0" encoding="utf-8"?>
<!-- Generator: Adobe Illustrator 24.1.2, SVG Export Plug-In . SVG Version: 6.00 Build 0)  -->
<svg version="1.1" id="Layer_1" xmlns="http://www.w3.org/2000/svg" xmlns:xlink="http://www.w3.org/1999/xlink" x="0px" y="0px"
	 viewBox="0 0 51.5 77.1" style="enable-background:new 0 0 51.5 77.1;" xml:space="preserve">
<style type="text/css">
	.st0{fill:#FFFFFF;}
</style>
<path class="st0" d="M50.2,33.4L35.7,5.6C33.5,2.2,30.1,0,25.7,0c-3.6,0-7.5,1.3-9.9,5.6L1.2,33.4c-2,4.2-1.4,7.3,0.3,10.5
	l15.1,27.5c1.9,3.4,5,5.6,9.1,5.7c5.4-0.2,7.2-2.3,9.1-5.7l15.1-27.5C51.6,40.7,52.2,37.6,50.2,33.4z M49.1,41.5
	c0,0-10.7,18.4-16.5,27.1c-2.6,3.9-7.6,4.2-11.1,0C20.6,67.6,5.8,45.2,3,41c-1.7-2.6-1.3-5.2-0.6-6.5L18.1,8
	c2.5-3.7,7.5-5.6,11.2-1.1c0,0,16.1,23.5,17.8,25.8C50.2,37.1,49.9,39.6,49.1,41.5z"/>
<path class="st0" d="M38.8,41c-0.3-1.2-0.7-2.3-1.3-3.3v0c-0.6-1-1.3-1.9-2.2-2.6c-0.5-0.4-1.1-0.8-1.8-1c0.2-0.1,0.4-0.3,0.6-0.4
	c0.6-0.4,1.1-0.9,1.5-1.4c0.4-0.5,0.8-1.1,1-1.8c0.2-0.7,0.4-1.4,0.4-2.3c0-1.7-0.4-3-1.1-4c-0.7-1-1.7-1.7-2.8-2.3
	c-1.1-0.5-2.3-0.8-3.7-1c-1.3-0.1-3.7-0.2-4.9-0.2H14c0,0,2.1,0.4,2.1,3.9v25.4c0,3.4-2.1,4.2-2.1,4.2h13c1.5,0,3-0.2,4.4-0.5
	c1.5-0.3,2.8-0.9,3.9-1.7c1.2-0.8,2.1-1.8,2.8-3.1c0.7-1.3,1.1-2.8,1.1-4.6C39.3,43.2,39.1,42.1,38.8,41z M20.9,36.2H26
	c2.7,0,4.8,0.7,6.4,2c1.5,1.3,2.3,3.4,2.3,6.2c0,1.1-0.2,2.1-0.6,2.9c-0.4,0.8-0.9,1.5-1.5,2.1c-0.6,0.6-1.4,1-2.3,1.3
	c-0.9,0.3-1.9,0.4-3,0.4h-6.4V36.2z M32.1,30.6c-0.3,0.5-0.7,1-1.1,1.3c-0.5,0.4-1,0.6-1.7,0.8c-0.6,0.2-1.3,0.3-1.9,0.3h-6.6v-9.4
	h5.1c0.8,0,1.6,0.1,2.4,0.3c0.8,0.2,1.5,0.5,2.2,1c0.6,0.4,1.1,1,1.5,1.6c0.4,0.6,0.6,1.4,0.6,2.3C32.6,29.5,32.4,30.1,32.1,30.6z"
	/>
</svg>
