<?xml version="1.0" encoding="utf-8"?>
<!-- Generator: Adobe Illustrator 23.1.1, SVG Export Plug-In . SVG Version: 6.00 Build 0)  -->
<svg version="1.1" id="Layer_1" xmlns="http://www.w3.org/2000/svg" xmlns:xlink="http://www.w3.org/1999/xlink" x="0px" y="0px"
	 viewBox="0 0 482.6 60.8" style="enable-background:new 0 0 482.6 60.8;" xml:space="preserve">
<style type="text/css">
	.st0{fill:#D5CCB3;}
</style>
<title>Best&amp;amp;Lloyd_Logotype_Gold</title>
<g>
	<path class="st0" d="M46.6,31.1c-1-1.7-2.3-3.2-3.9-4.5c-1.1-0.9-2.4-1.6-3.7-2c0.5-0.3,1-0.6,1.5-1c1-0.7,1.9-1.5,2.6-2.4
		c0.8-0.9,1.4-2,1.8-3.1c0.4-1.3,0.6-2.6,0.6-3.9c0.1-2.4-0.6-4.8-2-6.8c-1.3-1.7-3-3-4.9-3.9c-2-0.9-4.2-1.5-6.4-1.7
		c-2.2-0.2-6.5-0.4-8.7-0.4H6.8l0.4,0.4c1.4,1.9,2.1,4.2,2,6.6v43.7c0,2.3-0.6,4.6-1.9,6.6l-0.3,0.4h21.1c2.6,0,5.3-0.3,7.8-0.8
		c2.5-0.5,4.8-1.5,6.9-2.8c2-1.3,3.7-3.1,5-5.2c1.3-2.4,2-5.2,1.9-7.9c0-2-0.3-3.9-0.8-5.8C48.4,34.7,47.6,32.8,46.6,31.1z
		 M37.6,18.8c-0.5,0.9-1.2,1.8-2.1,2.4c-0.9,0.7-2,1.2-3.1,1.5c-1.1,0.4-2.3,0.5-3.5,0.5h-12v-17h9.3c1.5,0,3,0.2,4.4,0.6
		c1.4,0.4,2.7,0.9,3.9,1.7c1.1,0.7,2.1,1.7,2.8,2.9c0.7,1.2,1.1,2.7,1,4.1C38.4,16.6,38.1,17.7,37.6,18.8L37.6,18.8z M42.2,42.5
		c0,1.8-0.3,3.6-1,5.2l0,0c-0.6,1.5-1.6,2.7-2.8,3.8c-1.2,1.1-2.7,1.8-4.2,2.3c-1.7,0.5-3.5,0.8-5.4,0.8H16.9V27.9h9.5
		c4.8,0,8.7,1.2,11.5,3.6S42.2,37.6,42.2,42.5L42.2,42.5z"/>
	<path class="st0" d="M86.7,6.2c1.1,0,2.3,0.1,3.4,0.3c2.2,0.5,5.7,2.8,5.8,2.9l0.9,0.6l-4.5-8.4H59.2l0.3,0.4
		c1.2,2,1.8,4.4,1.8,6.7v44.1c0,5-1.2,6.5-1.2,6.5h33.6l2.8-8.8l-0.8,0.9c-2.3,2.2-5.4,3.3-8.6,3.2H69V27.9h21l1.6-4.7H68.9v-17
		L86.7,6.2z"/>
	<path class="st0" d="M134.6,29.8L134.6,29.8c-2.3-1.6-4.8-3-7.3-4.1c-2.6-1.2-5-2.4-7.1-3.6c-1.9-1-3.7-2.3-5.4-3.8
		c-1.2-1-2-2.6-2-4.2c0-1.3,0.3-2.6,0.8-3.8c1.1-2.2,3-4,5.4-4.8c2.6-0.8,5.4-0.9,8-0.2c1.4,0.4,2.8,0.8,4.2,1.4
		c3.3,1.5,6.2,3.7,8.5,6.6l0.6,0.9L139,5.1l0-0.1l-0.4-0.2c-2.5-1.3-5.1-2.3-7.8-3c-2.7-0.7-5.5-1-8.3-1c-2.1,0-4.2,0.3-6.2,0.8
		c-2.1,0.5-4,1.4-5.8,2.6c-1.7,1.1-3.2,2.6-4.3,4.4c-1.2,1.9-1.8,4-1.7,6.2c0,2.5,0.8,4.9,2.4,6.8c1.6,2,3.6,3.7,5.8,5
		c2.4,1.5,4.8,2.8,7.3,4c2.6,1.2,5,2.5,7.2,3.8c2,1.1,3.8,2.5,5.4,4.1c1.3,1.3,2,3.1,2,5c0,1.8-0.3,3.6-1,5.2
		c-0.7,1.5-1.6,2.8-2.8,3.8c-1.2,1.1-2.7,1.9-4.2,2.4c-1.7,0.6-3.5,0.8-5.3,0.8c-1.6,0-3.2-0.3-4.7-0.8c-1.7-0.6-3.3-1.3-4.8-2.2
		c-1.6-0.9-3-1.9-4.4-3c-1.3-1-2.5-2.1-3.6-3.3l-1.7-1.9l1.2,9.6l0.3,0.2c2.5,1.5,5.1,2.8,7.8,4c2.8,1.1,5.8,1.7,8.8,1.6
		c2.7,0,5.4-0.3,8.1-0.8c2.6-0.5,5-1.4,7.2-2.8c2.1-1.3,3.9-3.1,5.2-5.3c1.4-2.5,2.1-5.3,2-8.2c0.1-2.7-0.8-5.4-2.4-7.6
		C138.7,33.2,136.8,31.3,134.6,29.8z"/>
	<path class="st0" d="M242.6,49.2c-2.3-1.4-4.6-2.8-6.8-4.5c0.7-1.7,1.1-3.4,1.4-5.2c0.3-2,0.5-3.9,0.5-5.9c0-1.9-0.1-3.7-0.3-5.6
		c-0.2-1.8-0.4-3.7-0.7-5.5l-0.1-0.6h-9.9l0.8,0.5c2.2,1.5,3.9,3.7,4.8,6.2c0.6,1.9,0.8,4,0.8,6c0,0.5,0,1.1-0.1,1.8
		s-0.1,1.5-0.2,2.3c-0.1,0.7-0.3,1.4-0.5,2.1c-0.1,0.3-0.2,0.5-0.3,0.8c-3.2-2.6-6.2-5.5-9.1-8.5c-2.8-3-5.5-6.1-7.9-9.4
		c1.1-0.5,2.2-1.1,3.4-1.8c1.4-0.8,2.7-1.7,3.8-2.8c1.1-1,2.1-2.3,2.9-3.6c0.8-1.5,1.2-3.1,1.2-4.8c0-1.5-0.3-2.9-0.9-4.3
		c-0.6-1.2-1.4-2.4-2.4-3.3c-1-0.9-2.2-1.6-3.5-2.1c-1.4-0.5-2.9-0.7-4.4-0.7c-1.7,0-3.3,0.3-4.9,0.8c-1.5,0.5-2.8,1.3-4,2.3
		c-2.5,2.2-3.8,5.3-3.8,8.6c0,2,0.4,4,1.2,5.9c0.6,1.6,1.4,3.2,2.3,4.6c-3.2,1.4-6.1,3.5-8.4,6.2c-2.5,3-3.8,6.8-3.7,10.7
		c0,2.8,0.5,5.7,1.5,8.3c1,2.5,2.4,4.7,4.3,6.5c1.9,1.9,4.2,3.3,6.7,4.2c2.7,1,5.6,1.5,8.4,1.5c3.6,0.1,7.1-0.8,10.2-2.6
		c2.8-1.6,5.3-3.8,7.2-6.5c1.8,1.5,3.8,2.9,5.7,4.2c2.2,1.5,4.4,2.9,6.8,4.2l0.5,0.3l6.8-6.7l-1.3-0.3
		C247.7,51.7,245.1,50.6,242.6,49.2z M209.8,51.7c-1.9-0.8-3.7-1.8-5.2-3.2c-1.5-1.3-2.7-3-3.6-4.8c-0.9-1.8-1.4-3.9-1.4-5.9
		c0-1.3,0.2-2.6,0.8-3.8c0.5-1.2,1.2-2.3,2-3.2c0.9-1,1.9-1.9,3-2.6c0.9-0.6,1.9-1.2,2.9-1.7c1.1,1.7,2.3,3.4,3.7,5
		c1.7,2,3.6,4.1,5.5,6.2s4,4.1,5.9,5.9c1.7,1.6,3.3,3,4.6,4.1c-1.3,1.7-3.1,2.9-5.1,3.7C218.8,53.2,214,53.3,209.8,51.7L209.8,51.7z
		 M212.3,19.9c-0.4-0.6-0.9-1.2-1.2-1.7s-0.9-1.3-1.2-2c-0.4-0.6-0.6-1.3-0.8-2c-0.2-0.9-0.3-1.8-0.3-2.7c0-0.9,0.1-1.8,0.3-2.6
		c0.2-0.8,0.5-1.5,1-2.2c0.5-0.6,1-1.1,1.7-1.5c0.8-0.4,1.6-0.6,2.5-0.6c1.8-0.1,3.5,0.7,4.6,2c0.6,0.7,1,1.4,1.3,2.2
		c0.3,0.9,0.5,1.8,0.4,2.7c0,1.1-0.2,2.2-0.8,3.1c-0.5,0.9-1.2,1.6-2.1,2.2c-0.9,0.7-1.9,1.2-2.9,1.7C214,19,213.1,19.5,212.3,19.9
		L212.3,19.9z"/>
	<path class="st0" d="M366.1,9c-2.9-2.5-6.2-4.4-9.8-5.7c-3.7-1.3-7.6-2-11.6-2c-4.1,0-8.1,0.8-11.8,2.4c-3.6,1.6-6.9,3.8-9.8,6.6
		c-2.8,2.8-5.1,6.1-6.6,9.7c-1.6,3.7-2.5,7.7-2.4,11.7c0,4,0.8,7.9,2.5,11.5c1.6,3.4,3.9,6.4,6.8,8.9c2.9,2.5,6.2,4.4,9.8,5.7
		c3.7,1.3,7.6,2,11.6,2c4.1,0,8.1-0.8,11.8-2.4c7.3-3.1,13.1-8.9,16.3-16.2c1.6-3.7,2.5-7.7,2.4-11.7c0-4-0.8-7.9-2.5-11.5
		C371.2,14.5,368.9,11.5,366.1,9z M366.8,33c0,3-0.5,6-1.6,8.9c-1,2.5-2.5,4.8-4.5,6.7c-2,1.9-4.4,3.4-7,4.3
		c-3.1,1.1-6.5,1.7-9.8,1.5c-0.9,0-1.7-0.1-2.6-0.3c-1.9-0.5-3.8-1.2-5.6-2.1c-2.1-1.2-4.1-2.6-5.8-4.4c-1.6-1.7-3-3.6-4.1-5.7
		c-1.1-2.1-1.9-4.3-2.4-6.6c-0.5-2.4-0.8-4.8-0.8-7.2c0-3,0.5-6,1.6-8.9c1-2.5,2.6-4.8,4.5-6.7c2-1.9,4.4-3.4,7-4.3
		c2.9-1.1,6-1.6,9.1-1.5h0.9c0.8,0,1.6,0.1,2.4,0.3c6.7,1.6,12.4,6,15.6,12.2c1.1,2.1,1.9,4.3,2.4,6.7
		C366.6,28.2,366.8,30.6,366.8,33L366.8,33z"/>
	<path class="st0" d="M474.7,18.3c-1.6-3.4-3.8-6.4-6.5-8.9c-2.8-2.5-6-4.5-9.5-5.8c-3.6-1.4-7.5-2.1-11.3-2.1h-18.7l0.3,0.4
		c1.4,2.1,2.2,4.6,2.1,7.1v43.9c0,3.7-2.1,5.8-2.5,5.8v0.5h18.2c4.1,0,8.1-0.7,11.8-2.3c7.2-2.9,13-8.5,16.1-15.7
		c1.6-3.7,2.4-7.7,2.4-11.7C477.2,25.7,476.3,21.9,474.7,18.3z M468.7,32.6c0,3.1-0.5,6.1-1.6,8.9l0,0c-2,5.3-6.2,9.4-11.4,11.4
		c-2.9,1.1-5.9,1.7-9,1.6h-7.7V6.2h4.4c3.6-0.1,7.1,0.6,10.4,2c3,1.3,5.7,3.2,8,5.6c2.3,2.4,4,5.3,5.2,8.4
		C468.1,25.5,468.8,29.1,468.7,32.6L468.7,32.6z"/>
	<path class="st0" d="M303.9,40.2L303.9,40.2c-1.1,0.2-2.2,0.3-3.3,0.3h-13.9V7.9c0-0.9,0-1.9,0.1-2.8c0.3-1.2,0.8-2.3,1.4-3.3
		l0.1-0.2h-10.6l1,0.4c0,0,1.8,0.7,1.8,4.5v34.9c0,2.6-1.2,3.4-1.2,3.4h27.9l2.3-6.2L308,39C306.6,39.5,305.3,39.9,303.9,40.2z"/>
	<path class="st0" d="M416,1.5c-0.4,0-0.9,0.2-1.1,0.6L400,26.9L385,2.1c-0.2-0.4-0.6-0.6-1-0.6h-11.2l3.5,3c0.5,0.5,1,0.9,1.5,1.5
		c0.5,0.5,0.9,1.1,1.4,1.7c0.5,0.7,1,1.4,1.4,2.1L394.6,33v19.2c0,4.4-1.8,6.2-2.8,6.8v0.3h13.5V59c-1.1-0.6-2.9-2.1-2.9-6.3V32.2
		l13.2-22c1-1.5,1.8-2.8,2.6-3.9c2.3-3.1,3.3-4.3,3.3-4.3l0.4-0.4L416,1.5z"/>
	<path class="st0" d="M302.2,52.5c-0.2,0.1-0.4,0.2-0.6,0.4c-1.2,0.7-2.6,1.7-8,1.7h-26.9V7.8c0-0.4,0-0.8,0-1.1s0-0.7,0-1.2
		c0-1.4,0.6-2.8,1.7-3.8l0.4-0.3h-12.5l0.4,0.3c1.4,1.3,2.2,3.1,2.2,5V53c0.1,2.2-0.6,4.4-2.1,6v0.3h43.3l2.7-7.1L302.2,52.5z"/>
	<path class="st0" d="M189.3,1.5h-42l-4.2,8.2l0.9-0.6c0,0,3.1-2.3,5.4-2.6c1.1-0.2,2.2-0.3,3.3-0.3h11.7v46.2
		c0.1,2.4-0.7,4.7-2.1,6.6v0.3h12.4V59c-1.7-1.4-2.7-3.6-2.7-5.9v-47h11.8c1.1,0,2.2,0.1,3.3,0.3c1.8,0.5,3.5,1.2,5.2,2.1l0.7,0.4
		L189.3,1.5z"/>
</g>
</svg>
