<?xml version="1.0" encoding="utf-8"?>
<!-- Generator: Adobe Illustrator 24.1.2, SVG Export Plug-In . SVG Version: 6.00 Build 0)  -->
<svg version="1.1" id="Layer_1" xmlns="http://www.w3.org/2000/svg" xmlns:xlink="http://www.w3.org/1999/xlink" x="0px" y="0px"
	 viewBox="0 0 240 66.6" style="enable-background:new 0 0 240 66.6;" xml:space="preserve">
<g>
	<path d="M23.2,19.6c-0.3-1.1-0.6-2.1-1.2-3v0c-0.5-0.9-1.2-1.7-2-2.4c-0.5-0.4-1-0.7-1.6-1c0.2-0.1,0.3-0.2,0.5-0.3
		c0.5-0.4,1-0.8,1.3-1.3c0.4-0.5,0.7-1.1,0.9-1.7c0.2-0.6,0.3-1.3,0.3-2.1c0-1.5-0.3-2.8-1-3.7C19.9,3.2,19,2.5,18,2
		c-1-0.5-2.1-0.8-3.3-0.9c-1.1-0.1-3.3-0.2-4.4-0.2H1.1c0,0,1.9,0.4,1.9,3.6v23.3c0,3.1-1.9,3.9-1.9,3.9h11.6c1.4,0,2.7-0.1,4-0.4
		c1.3-0.3,2.5-0.8,3.5-1.5c1-0.7,1.9-1.7,2.5-2.8c0.6-1.2,1-2.6,1-4.3C23.6,21.7,23.5,20.6,23.2,19.6z M7.2,15.2h4.6
		c2.4,0,4.3,0.6,5.7,1.9c1.4,1.2,2,3.1,2,5.7c0,1-0.2,1.9-0.5,2.7c-0.3,0.8-0.8,1.4-1.4,1.9c-0.6,0.5-1.3,0.9-2.1,1.2
		c-0.8,0.3-1.7,0.4-2.6,0.4H7.2V15.2z M17.3,10.1c-0.2,0.5-0.6,0.9-1,1.2c-0.4,0.3-0.9,0.6-1.5,0.8c-0.6,0.2-1.1,0.3-1.7,0.3H7.2
		V3.7h4.5c0.7,0,1.4,0.1,2.2,0.3c0.7,0.2,1.4,0.5,1.9,0.9c0.5,0.4,1,0.9,1.3,1.5c0.3,0.6,0.5,1.3,0.5,2.1
		C17.6,9.1,17.5,9.6,17.3,10.1z"/>
	<path d="M46.5,27.7c0,0-1.9,1.2-4.7,1.2h-9.3V15.2h10.9l0.9-2.8H32.5V3.7h9.1c3.2,0,4.8,1.3,4.8,1.3l-1.9-4.1l-17.9,0
		c0,0,1.7,0.8,1.7,3.6v23.3c0,3-1.8,3.9-1.8,3.9h18.7l1.7-4.3L46.5,27.7z"/>
	<path d="M68.4,18.8c-0.8-1.1-1.7-2.1-2.9-2.9l0,0c-1.1-0.8-2.4-1.6-3.7-2.2c-1.3-0.6-2.5-1.3-3.6-1.9c-1.1-0.6-1.9-1.3-2.7-2
		c-0.6-0.6-0.9-1.3-0.9-2.1c0-0.7,0.1-1.4,0.4-1.9c0.3-0.6,0.6-1.1,1.1-1.5c0.4-0.4,1-0.7,1.6-0.9c1.1-0.4,2.5-0.4,3.9-0.1
		c0.7,0.2,1.4,0.4,2.1,0.7c2.7,1.2,4.6,3.9,4.6,3.9l0.4,0.5L67.9,3l0-0.1l-0.2-0.1C66.3,2,65,1.4,63.7,1.1c-1.3-0.4-2.7-0.6-4.2-0.6
		c-1,0-2.1,0.2-3.2,0.4c-1.1,0.3-2.1,0.8-3,1.4c-0.9,0.6-1.6,1.4-2.2,2.4c-0.6,1-0.9,2.1-0.9,3.4c0,1.4,0.4,2.7,1.2,3.7
		c0.8,1,1.8,1.9,2.9,2.7c1.1,0.7,2.4,1.5,3.7,2.1c1.3,0.6,2.5,1.3,3.6,2c1.1,0.7,2,1.4,2.7,2.1c0.6,0.7,1,1.5,1,2.5
		c0,1-0.2,1.9-0.5,2.7c-0.3,0.8-0.8,1.4-1.4,2c-0.6,0.5-1.3,0.9-2.1,1.2c-0.8,0.3-1.7,0.4-2.6,0.4c-0.7,0-1.5-0.1-2.3-0.4
		c-0.8-0.3-1.6-0.7-2.4-1.1c-0.8-0.5-1.5-1-2.2-1.6c-0.7-0.6-1.3-1.2-1.8-1.7l-1.1-1.3l0.6,5.6l0.2,0.1c1.3,0.8,2.7,1.5,4,2.1
		c1.3,0.6,2.8,0.9,4.4,0.9c1.4,0,2.8-0.1,4.1-0.4c1.4-0.3,2.6-0.8,3.7-1.5c1.1-0.7,2-1.7,2.7-2.8c0.7-1.2,1-2.7,1-4.4
		C69.7,21.4,69.2,20,68.4,18.8z"/>
	<path d="M124.5,28.1c-1.6-0.4-3-1-4.2-1.7c-1.1-0.6-2.3-1.4-3.5-2.3c0.3-0.9,0.6-1.8,0.7-2.7c0.2-1,0.2-2.1,0.2-3.2
		c0-1-0.1-2-0.2-3c-0.1-1-0.2-2-0.4-2.9l-0.1-0.5h-6l0.9,0.5c0,0,1.8,1.1,2.5,3.2c0.4,1.1,0.4,2.3,0.4,3.1c0,0.2,0,0.6,0,0.9
		c0,0.4-0.1,0.8-0.1,1.2c-0.1,0.4-0.1,0.8-0.3,1.1c0,0.1,0,0.1-0.1,0.2c-1.6-1.4-3.2-2.8-4.6-4.4c-1.4-1.5-2.8-3.1-4.1-4.8
		c0.5-0.3,1.1-0.6,1.6-0.9c0.8-0.4,1.4-0.9,2.1-1.5c0.6-0.6,1.1-1.2,1.5-2c0.4-0.8,0.6-1.7,0.6-2.6c0-0.8-0.2-1.6-0.5-2.3
		c-0.3-0.7-0.8-1.3-1.3-1.8c-0.5-0.5-1.2-0.9-1.9-1.1c-0.7-0.3-1.5-0.4-2.4-0.4c-0.9,0-1.8,0.1-2.6,0.4c-0.8,0.3-1.6,0.7-2.2,1.3
		c-0.6,0.5-1.1,1.2-1.5,2c-0.4,0.8-0.5,1.7-0.5,2.6c0,1,0.2,2.1,0.6,3.2c0.3,0.9,0.7,1.6,1.1,2.3c-1.7,0.8-3.2,1.9-4.3,3.2
		c-1.3,1.6-2,3.5-2,5.8c0,1.6,0.3,3.1,0.8,4.5c0.6,1.4,1.3,2.5,2.3,3.5c1,1,2.2,1.7,3.6,2.3c1.4,0.5,2.9,0.8,4.5,0.8
		c2,0,3.9-0.5,5.5-1.4c1.4-0.8,2.7-1.9,3.7-3.3c0.9,0.7,1.9,1.5,2.9,2.1c1.1,0.8,2.4,1.6,3.6,2.2l0.4,0.2l3.9-3.8L124.5,28.1z
		 M100.3,26.1c-0.8-0.7-1.4-1.5-1.9-2.5c-0.5-0.9-0.7-2-0.7-3.1c0-0.7,0.1-1.3,0.4-1.9c0.3-0.6,0.6-1.2,1.1-1.7c0.4-0.5,1-1,1.5-1.4
		c0.5-0.3,0.9-0.6,1.4-0.8c0.5,0.8,1.1,1.6,1.9,2.5c0.9,1.1,1.9,2.2,2.9,3.3c1,1.1,2.1,2.2,3.2,3.2c0.9,0.8,1.6,1.5,2.3,2.1
		c-0.7,0.8-1.5,1.4-2.5,1.8c-2.4,0.9-4.7,1-6.9,0.1v0C102,27.3,101.1,26.8,100.3,26.1z M104.3,10.8c-0.2-0.3-0.4-0.5-0.6-0.8
		c-0.2-0.3-0.4-0.7-0.6-1c-0.2-0.3-0.3-0.7-0.4-1c-0.1-0.4-0.1-0.8-0.1-1.4c0-0.5,0.1-0.9,0.2-1.4c0.1-0.4,0.3-0.8,0.5-1.1
		c0.2-0.3,0.5-0.6,0.9-0.7c0.3-0.2,0.7-0.3,1.2-0.3c0.5,0,0.9,0.1,1.3,0.3c0.4,0.2,0.7,0.4,1,0.7c0.3,0.3,0.5,0.7,0.7,1.1
		c0.2,0.4,0.2,0.9,0.2,1.4c0,0.6-0.1,1.2-0.4,1.6c-0.3,0.4-0.6,0.8-1,1.1c-0.5,0.3-1,0.6-1.5,0.9C105.1,10.4,104.7,10.6,104.3,10.8z
		"/>
	<path d="M185.7,9.5c-0.8-1.9-2-3.5-3.4-4.9c-1.4-1.3-3.1-2.4-5-3.1c-1.8-0.7-3.8-1.1-5.9-1.1c-2.1,0-4.1,0.4-6,1.3
		c-1.9,0.9-3.5,2.1-4.9,3.6c-1.4,1.5-2.6,3.3-3.4,5.3c-0.8,2-1.2,4.2-1.2,6.4c0,2.3,0.4,4.4,1.3,6.3c0.9,1.9,2,3.5,3.4,4.9
		c1.4,1.3,3.1,2.4,5,3.1c1.9,0.7,3.9,1.1,5.9,1.1c2.1,0,4.1-0.4,6-1.3c1.9-0.9,3.5-2.1,4.9-3.6c1.4-1.5,2.5-3.3,3.3-5.3
		c0.8-2,1.2-4.2,1.2-6.4C186.9,13.5,186.5,11.4,185.7,9.5z M167,27.9c-1.1-0.6-2.1-1.4-2.9-2.3c-0.8-0.9-1.5-1.9-2-3
		c-0.5-1.1-0.9-2.3-1.2-3.5c-0.3-1.2-0.4-2.5-0.4-3.9c0-1.7,0.3-3.3,0.8-4.7c0.5-1.4,1.3-2.6,2.2-3.6c0.9-1,2.1-1.8,3.4-2.3
		c1.4-0.5,2.9-0.8,4.5-0.8c0.1,0,0.3,0,0.4,0c0.4,0,0.8,0.1,1.2,0.2c1,0.3,2,0.6,2.8,1.1c1.1,0.6,2.1,1.4,2.9,2.3
		c0.8,0.9,1.5,1.9,2,3c0.5,1.1,0.9,2.3,1.2,3.6c0.3,1.3,0.4,2.6,0.4,3.9c0,1.7-0.3,3.3-0.8,4.7c-0.5,1.4-1.3,2.6-2.2,3.6
		c-1,1-2.1,1.8-3.4,2.3c-1.4,0.6-3.1,0.9-4.9,0.8c-0.4,0-0.9-0.1-1.3-0.2C168.8,28.8,167.8,28.4,167,27.9z"/>
	<path d="M237.4,9.9c-0.8-1.8-1.9-3.4-3.3-4.7c-1.4-1.3-3-2.4-4.8-3.1c-1.8-0.7-3.8-1.1-5.8-1.1H213c0,0,1.6,1.1,1.6,3.7v23.5
		c0,2.6-1.5,3.6-1.5,3.6h10.1c2.1,0,4.2-0.4,6-1.2c1.9-0.8,3.5-1.9,4.9-3.3c1.4-1.4,2.5-3.1,3.3-5c0.8-1.9,1.2-4,1.2-6.2
		C238.7,13.8,238.3,11.7,237.4,9.9z M218.8,3.8h2.7c1.9,0,3.6,0.4,5.2,1c1.5,0.7,2.9,1.7,4,2.9c1.1,1.2,2,2.7,2.6,4.4
		c0.6,1.7,0.9,3.5,0.9,5.4c0,1.7-0.3,3.3-0.8,4.7c-0.5,1.4-1.3,2.6-2.2,3.6c-1,1-2.1,1.8-3.4,2.3c-1.3,0.6-2.9,0.8-4.5,0.8h-4.3
		L218.8,3.8z"/>
	<path d="M152.9,20.5c0,0-1.1,1-4.4,1h-6.8v-17c0-2.6,1.2-3.6,1.2-3.6l-5.7,0c0,0,1.2,0.9,1.2,3.6v16.8c0,1.6-0.6,2.4-0.6,2.4
		l-0.2,0.3H152l1.4-4L152.9,20.5z"/>
	<path d="M145.8,28.9h-12.6V4.5c0-3,1.1-3.6,1.1-3.6l-6.5,0c0,0,1.1,0.6,1.1,3.6v23c0,3.3-1.5,4.2-1.5,4.2h21.6l1.8-4.4
		C150.9,27.3,149.7,28.9,145.8,28.9z"/>
	<path d="M92.8,0.9H71.5l-1.5,4c0,0,1.5-1.2,4.4-1.2h5.7v24.1c0,3.4-2.4,3.9-2.4,3.9H85l1.2,0c0,0-2-0.4-2-3.9V3.7H90
		c3,0,4.4,1.2,4.4,1.2L92.8,0.9z"/>
	<path d="M206.9,0.9L206.9,0.9l-7.7,13.3l-7.7-13.3h-6.6c0,0,1.6,0.5,3.7,3.5l0,0.1c0.2,0.3,0.5,0.7,0.7,1.1l7,12.2v10
		c0,2.7-1.7,3.9-1.7,3.9h7.3l0.5,0c0,0-1.9-1.1-1.9-3.9l0-10.5l6.6-11.6c0.1-0.2,0.3-0.5,0.5-0.8c0.5-0.8,1.1-1.8,1.3-2.2
		c0.9-1.5,1.6-1.8,1.6-1.8H206.9z"/>
	<g>
		<polygon points="98.3,54.5 98.4,55.8 100.5,55 100.5,62.5 101.8,62.5 101.8,53.2 98.4,54.5 		"/>
		<path d="M113,56.6c1-0.5,2.1-1.5,2.1-2.9c0-1.9-1.4-3.2-3.5-3.2c-2.2,0-3.7,1.4-3.7,3.3c0,1.4,1,2.2,2.1,2.7
			c-0.9,0.4-2.3,1.4-2.3,3c0,2.3,2.1,3.2,3.8,3.2c2.6,0,3.8-1.7,3.8-3.3C115.3,57.9,114.2,57.2,113,56.6z M109.2,53.7
			c0-0.9,0.7-2,2.3-2c1.3,0,2.2,0.9,2.2,2.1c0,1.3-1.1,1.9-1.8,2.2l-0.1,0C110.5,55.5,109.2,54.9,109.2,53.7z M111.1,57l0.2,0.1
			c1.4,0.6,2.7,1.1,2.7,2.4c0,1.2-0.9,2-2.4,2c-1.5,0-2.5-0.8-2.5-2.1C109,57.9,110.5,57.3,111.1,57z"/>
		<path d="M126.5,61.2v-8h-1.1l-6,8.3l0,0l0.2,0.9h5.7v3.4h1.3v-3.4h1.8l-0.1-1.3H126.5z M121.2,61.2l4.1-5.8v5.8H121.2z"/>
		<path d="M136.9,53.3c-2.6,0-4.6,2-4.6,4.7c0,2.7,1.9,4.7,4.6,4.7c2.7,0,4.6-2,4.6-4.7C141.4,55.2,139.5,53.3,136.9,53.3z
			 M140.1,58c0,2-1.4,3.4-3.3,3.4c-1.9,0-3.2-1.4-3.2-3.4c0-2,1.4-3.4,3.2-3.4C138.7,54.5,140.1,56,140.1,58z"/>
	</g>
</g>
</svg>
