<?xml version="1.0" encoding="utf-8"?>
<!-- Generator: Adobe Illustrator 24.1.2, SVG Export Plug-In . SVG Version: 6.00 Build 0)  -->
<svg version="1.1" id="Layer_1" xmlns="http://www.w3.org/2000/svg" xmlns:xlink="http://www.w3.org/1999/xlink" x="0px" y="0px"
	 viewBox="0 0 236.5 32" style="enable-background:new 0 0 236.5 32;" xml:space="preserve">
<g>
	<path d="M22.5,19.1c-0.3-1.1-0.6-2-1.2-3v0c-0.5-0.9-1.2-1.7-2-2.4c-0.5-0.4-1-0.7-1.6-0.9c0.2-0.1,0.3-0.2,0.5-0.3
		c0.5-0.4,0.9-0.8,1.3-1.3c0.4-0.5,0.7-1,0.9-1.7c0.2-0.6,0.3-1.3,0.3-2.1c0-1.5-0.3-2.7-1-3.7c-0.7-0.9-1.5-1.6-2.5-2.1
		c-1-0.5-2.1-0.8-3.2-0.9C13,0.7,10.9,0.6,9.8,0.6H0.6c0,0,1.9,0.4,1.9,3.6v23.1c0,3.1-1.9,3.8-1.9,3.8H12c1.3,0,2.7-0.1,3.9-0.4
		c1.3-0.3,2.5-0.8,3.5-1.5c1-0.7,1.9-1.6,2.5-2.8c0.6-1.1,1-2.6,1-4.2C22.9,21.1,22.8,20.1,22.5,19.1z M6.6,14.7h4.6
		c2.4,0,4.2,0.6,5.6,1.8c1.3,1.2,2,3.1,2,5.6c0,1-0.2,1.9-0.5,2.6c-0.3,0.8-0.8,1.4-1.4,1.9c-0.6,0.5-1.3,0.9-2.1,1.2
		c-0.8,0.3-1.7,0.4-2.6,0.4H6.6V14.7z M16.6,9.7c-0.2,0.5-0.6,0.9-1,1.2c-0.4,0.3-0.9,0.6-1.5,0.8c-0.6,0.2-1.1,0.3-1.7,0.3H6.6V3.4
		h4.5c0.7,0,1.4,0.1,2.1,0.3c0.7,0.2,1.3,0.5,1.9,0.9c0.5,0.4,1,0.9,1.3,1.4C16.8,6.6,17,7.3,17,8.1C17,8.7,16.9,9.2,16.6,9.7z"/>
	<path d="M45.5,27.1c0,0-1.9,1.2-4.6,1.2h-9.2V14.7h10.8l0.9-2.8H31.7V3.4h9c3.2,0,4.7,1.3,4.7,1.3l-1.9-4.1l-17.7,0
		c0,0,1.6,0.8,1.6,3.6v23c0,3-1.8,3.8-1.8,3.8h18.5l1.6-4.3L45.5,27.1z"/>
	<path d="M67.3,18.3c-0.8-1.1-1.7-2.1-2.9-2.9l0,0c-1.1-0.8-2.3-1.5-3.7-2.2c-1.3-0.6-2.5-1.3-3.5-1.9c-1-0.6-1.9-1.3-2.6-1.9
		c-0.6-0.6-0.9-1.3-0.9-2.1c0-0.7,0.1-1.3,0.4-1.9c0.3-0.6,0.6-1.1,1.1-1.5c0.4-0.4,0.9-0.7,1.5-0.9c1.1-0.4,2.4-0.4,3.9-0.1
		c0.7,0.2,1.4,0.4,2.1,0.7c2.7,1.2,4.6,3.8,4.6,3.8l0.4,0.5l-0.9-5.4l0-0.1l-0.2-0.1c-1.3-0.7-2.6-1.2-3.9-1.6
		c-1.3-0.4-2.7-0.6-4.2-0.6c-1,0-2.1,0.1-3.1,0.4c-1.1,0.3-2.1,0.8-2.9,1.4c-0.9,0.6-1.6,1.4-2.2,2.3c-0.6,1-0.9,2.1-0.9,3.3
		c0,1.4,0.4,2.6,1.2,3.7c0.8,1,1.7,1.9,2.9,2.6c1.1,0.7,2.3,1.4,3.6,2.1c1.3,0.6,2.5,1.3,3.6,2c1.1,0.6,2,1.4,2.7,2.1
		c0.6,0.7,1,1.5,1,2.5c0,1-0.2,1.9-0.5,2.6c-0.3,0.8-0.8,1.4-1.4,1.9c-0.6,0.5-1.3,0.9-2.1,1.2c-0.8,0.3-1.7,0.4-2.6,0.4
		c-0.7,0-1.5-0.1-2.3-0.4c-0.8-0.3-1.6-0.7-2.4-1.1c-0.8-0.5-1.5-1-2.2-1.5c-0.7-0.6-1.3-1.2-1.8-1.7l-1.1-1.3l0.6,5.6l0.2,0.1
		c1.3,0.8,2.6,1.5,3.9,2.1c1.3,0.6,2.8,0.9,4.4,0.9c1.4,0,2.7-0.1,4.1-0.4c1.3-0.3,2.6-0.8,3.6-1.5c1.1-0.7,2-1.6,2.6-2.8
		c0.7-1.2,1-2.6,1-4.3C68.5,20.8,68.1,19.5,67.3,18.3z"/>
	<path d="M122.7,27.5c-1.5-0.4-2.9-1-4.1-1.6c-1.1-0.6-2.3-1.4-3.4-2.3c0.3-0.8,0.6-1.7,0.7-2.6c0.2-1,0.2-2.1,0.2-3.1
		c0-1-0.1-2-0.2-2.9c-0.1-1-0.2-2-0.4-2.9l-0.1-0.5h-5.9l0.9,0.5c0,0,1.7,1.1,2.4,3.2c0.4,1.1,0.4,2.2,0.4,3.1c0,0.2,0,0.5,0,0.9
		c0,0.4-0.1,0.8-0.1,1.2c-0.1,0.4-0.1,0.7-0.3,1.1c0,0.1,0,0.1-0.1,0.2c-1.6-1.4-3.2-2.8-4.6-4.3c-1.4-1.5-2.8-3.1-4-4.8
		c0.5-0.3,1.1-0.5,1.6-0.9c0.7-0.4,1.4-0.9,2-1.5c0.6-0.6,1.1-1.2,1.5-1.9c0.4-0.8,0.6-1.6,0.6-2.6c0-0.8-0.2-1.6-0.5-2.3
		c-0.3-0.7-0.8-1.3-1.3-1.8c-0.5-0.5-1.2-0.9-1.9-1.1c-0.7-0.3-1.5-0.4-2.3-0.4c-0.9,0-1.8,0.1-2.6,0.4c-0.8,0.3-1.6,0.7-2.2,1.3
		c-0.6,0.5-1.1,1.2-1.5,2c-0.4,0.8-0.5,1.7-0.5,2.6c0,1,0.2,2.1,0.6,3.2c0.3,0.8,0.7,1.6,1.1,2.3c-1.7,0.8-3.2,1.9-4.3,3.2
		c-1.3,1.5-2,3.5-2,5.7c0,1.6,0.3,3.1,0.8,4.4c0.5,1.3,1.3,2.5,2.3,3.5c1,1,2.2,1.7,3.5,2.2c1.4,0.5,2.9,0.8,4.5,0.8
		c2,0,3.8-0.5,5.4-1.4c1.4-0.8,2.7-1.9,3.7-3.3c0.9,0.7,1.9,1.4,2.9,2.1c1.1,0.8,2.3,1.5,3.6,2.2l0.4,0.2l3.9-3.8L122.7,27.5z
		 M98.8,25.5c-0.8-0.7-1.4-1.5-1.9-2.4c-0.5-0.9-0.7-1.9-0.7-3.1c0-0.7,0.1-1.3,0.4-1.9c0.3-0.6,0.6-1.2,1.1-1.7
		c0.4-0.5,1-1,1.5-1.3c0.4-0.3,0.9-0.6,1.4-0.8c0.5,0.8,1.1,1.6,1.8,2.5c0.9,1.1,1.9,2.2,2.9,3.3c1,1.1,2.1,2.1,3.1,3.1
		c0.8,0.8,1.6,1.5,2.3,2.1c-0.6,0.8-1.5,1.4-2.5,1.8c-2.4,0.9-4.7,1-6.8,0.1v0C100.5,26.8,99.6,26.2,98.8,25.5z M102.8,10.4
		c-0.2-0.3-0.4-0.5-0.6-0.8c-0.2-0.3-0.4-0.7-0.6-1c-0.2-0.3-0.3-0.7-0.4-1c-0.1-0.4-0.1-0.8-0.1-1.4c0-0.5,0.1-0.9,0.2-1.3
		c0.1-0.4,0.3-0.8,0.5-1.1c0.2-0.3,0.5-0.6,0.9-0.7c0.3-0.2,0.7-0.3,1.2-0.3c0.5,0,0.9,0.1,1.3,0.3c0.4,0.2,0.7,0.4,1,0.7
		c0.3,0.3,0.5,0.7,0.6,1.1c0.2,0.4,0.2,0.9,0.2,1.4c0,0.6-0.1,1.2-0.4,1.6c-0.3,0.4-0.6,0.8-1,1.1c-0.5,0.3-1,0.6-1.5,0.9
		C103.6,10,103.2,10.2,102.8,10.4z"/>
	<path d="M183.3,9.1c-0.8-1.9-2-3.5-3.4-4.8C178.5,3,176.8,2,175,1.3c-1.8-0.7-3.8-1.1-5.8-1.1c-2.1,0-4.1,0.4-5.9,1.3
		c-1.9,0.9-3.5,2.1-4.9,3.5c-1.4,1.5-2.5,3.2-3.3,5.2c-0.8,2-1.2,4.1-1.2,6.3c0,2.3,0.4,4.3,1.3,6.2c0.8,1.9,2,3.5,3.4,4.8
		c1.4,1.3,3.1,2.4,4.9,3.1c1.9,0.7,3.8,1.1,5.8,1.1c2.1,0,4.1-0.4,5.9-1.3c1.8-0.9,3.5-2.1,4.9-3.5c1.4-1.5,2.5-3.2,3.3-5.2
		c0.8-2,1.2-4.1,1.2-6.3C184.5,13.1,184.1,11,183.3,9.1z M164.8,27.3c-1.1-0.6-2-1.4-2.9-2.3c-0.8-0.9-1.5-1.9-2-3
		c-0.5-1.1-0.9-2.3-1.2-3.5c-0.3-1.2-0.4-2.5-0.4-3.8c0-1.7,0.3-3.3,0.8-4.7c0.5-1.4,1.3-2.6,2.2-3.5c0.9-1,2.1-1.7,3.4-2.3
		c1.3-0.5,2.8-0.8,4.5-0.8c0.1,0,0.3,0,0.4,0c0.4,0,0.8,0.1,1.1,0.2c1,0.2,1.9,0.6,2.8,1.1c1.1,0.6,2,1.4,2.8,2.3
		c0.8,0.9,1.5,1.9,2,3c0.5,1.1,0.9,2.3,1.2,3.5c0.3,1.2,0.4,2.5,0.4,3.8c0,1.7-0.3,3.3-0.8,4.7c-0.5,1.4-1.3,2.6-2.2,3.5
		c-1,1-2.1,1.7-3.4,2.3c-1.4,0.6-3,0.9-4.8,0.8c-0.4,0-0.9-0.1-1.3-0.2C166.5,28.1,165.6,27.8,164.8,27.3z"/>
	<path d="M234.5,9.5c-0.8-1.8-1.9-3.4-3.3-4.7c-1.4-1.3-3-2.3-4.8-3.1c-1.8-0.7-3.7-1.1-5.7-1.1h-10.4c0,0,1.6,1.1,1.6,3.6v23.2
		c0,2.5-1.5,3.6-1.5,3.6h10c2,0,4.1-0.4,6-1.2c1.8-0.8,3.5-1.9,4.8-3.3c1.4-1.4,2.5-3.1,3.3-5c0.8-1.9,1.2-4,1.2-6.2
		C235.7,13.3,235.3,11.3,234.5,9.5z M216.1,3.4h2.6c1.9,0,3.6,0.3,5.1,1c1.5,0.7,2.8,1.7,3.9,2.9c1.1,1.2,1.9,2.7,2.5,4.3
		c0.6,1.7,0.9,3.5,0.9,5.4c0,1.7-0.3,3.2-0.8,4.6c-0.5,1.4-1.3,2.6-2.2,3.5c-0.9,1-2.1,1.8-3.4,2.3c-1.3,0.6-2.8,0.8-4.4,0.8h-4.3
		L216.1,3.4z"/>
	<path d="M150.9,20c0,0-1.1,1-4.3,1h-6.7V4.2c0-2.6,1.1-3.6,1.1-3.6l-5.7,0c0,0,1.1,0.9,1.1,3.6v16.6c0,1.6-0.6,2.4-0.6,2.4
		l-0.2,0.2h14.3l1.4-4L150.9,20z"/>
	<path d="M143.8,28.3h-12.4V4.2c0-3,1.1-3.5,1.1-3.5l-6.4,0c0,0,1.1,0.6,1.1,3.6v22.8c0,3.2-1.5,4.2-1.5,4.2h21.4l1.7-4.4
		C148.9,26.7,147.7,28.3,143.8,28.3z"/>
	<path d="M91.4,0.6H70.3l-1.5,4c0,0,1.4-1.2,4.3-1.2h5.7v23.9c0,3.3-2.3,3.9-2.3,3.9h7.3l1.2,0c0,0-2-0.4-2-3.9V3.4h5.7
		c3,0,4.4,1.2,4.4,1.2L91.4,0.6z"/>
	<path d="M204.3,0.6L204.3,0.6l-7.6,13.1L189,0.6h-6.6c0,0,1.6,0.5,3.7,3.4l0,0.1c0.2,0.3,0.4,0.7,0.7,1.1l6.9,12.1v9.9
		c0,2.7-1.7,3.9-1.7,3.9h7.3l0.5,0c0,0-1.9-1.1-1.9-3.9l0-10.4l6.5-11.4c0.1-0.2,0.3-0.5,0.5-0.8c0.5-0.8,1.1-1.8,1.3-2.2
		c0.9-1.5,1.6-1.8,1.6-1.8H204.3z"/>
</g>
</svg>
