<svg id="Layer_1" data-name="Layer 1" xmlns="http://www.w3.org/2000/svg" viewBox="0 0 240 72">
  <title>Best&amp;amp;Lloyd_Logotype_Black_1840</title>
  <g>
    <g>
      <polygon points="100.57 60.34 100.64 61.51 102.64 60.75 102.64 67.74 103.86 67.74 103.86 59.14 100.63 60.32 100.57 60.34"/>
      <path d="M114.32,62.27a3.13,3.13,0,0,0,1.91-2.68c0-1.76-1.33-3-3.3-3s-3.45,1.26-3.45,3.07a2.84,2.84,0,0,0,2,2.52A3.16,3.16,0,0,0,109.31,65c0,2.18,1.91,3,3.55,3,2.45,0,3.54-1.56,3.54-3.1C116.4,63.51,115.42,62.81,114.32,62.27Zm-3.58-2.68a1.91,1.91,0,0,1,2.15-1.84,2,2,0,0,1,2.08,2,2.4,2.4,0,0,1-1.66,2.07l-.06,0C112,61.23,110.74,60.72,110.74,59.59Zm1.77,3.1.14.06c1.28.55,2.5,1.07,2.5,2.27s-.83,1.83-2.26,1.83-2.32-.76-2.32-2S111.9,62.91,112.51,62.69Z"/>
      <path d="M126.89,66.29V59.12h-1.06l-5.58,7.48,0,0,.15.85h5.31v3.45h1.2V67.48h1.71l-.07-1.19Zm-5,0,3.82-5.12v5.12Z"/>
      <path d="M136.5,59.17a4.4,4.4,0,1,0,4.27,4.4A4.18,4.18,0,0,0,136.5,59.17Zm3,4.4a3,3,0,1,1-3-3.21A3,3,0,0,1,139.53,63.57Z"/>
    </g>
    <g>
      <path d="M26,18a8.1,8.1,0,0,0-1.9-2.18,5.6,5.6,0,0,0-1.79-1c.26-.16.51-.32.73-.48a6.38,6.38,0,0,0,1.28-1.15,5,5,0,0,0,.87-1.49,5.59,5.59,0,0,0,.3-1.89,5.35,5.35,0,0,0-.95-3.31,6.09,6.09,0,0,0-2.4-1.87A10.33,10.33,0,0,0,19,3.85c-1.08-.11-3.14-.18-4.21-.18H6.7l.18.21a5.09,5.09,0,0,1,1,3.21V28.26a5.78,5.78,0,0,1-.93,3.21l-.15.2H17a17.6,17.6,0,0,0,3.79-.4,9.8,9.8,0,0,0,3.35-1.38,7.62,7.62,0,0,0,2.39-2.53,7.47,7.47,0,0,0,.93-3.85,11.59,11.59,0,0,0-.37-2.8A10.73,10.73,0,0,0,26,18Zm-4.37-6a3.42,3.42,0,0,1-1,1.16,4.89,4.89,0,0,1-1.48.74,5.91,5.91,0,0,1-1.71.26H11.61V6h4.51a8.29,8.29,0,0,1,2.14.29,6.26,6.26,0,0,1,1.9.84A4.34,4.34,0,0,1,21.5,8.47a3.76,3.76,0,0,1,.5,2A3.28,3.28,0,0,1,21.63,12Zm2.2,11.51a6.06,6.06,0,0,1-.5,2.52h0A5.22,5.22,0,0,1,22,27.9,5.62,5.62,0,0,1,19.91,29a8.72,8.72,0,0,1-2.59.38H11.61V16.48h4.63a8.33,8.33,0,0,1,5.57,1.75A6.66,6.66,0,0,1,23.83,23.55Z"/>
      <path d="M45.44,6a8.67,8.67,0,0,1,1.64.13,11.18,11.18,0,0,1,2.8,1.39l.42.29L48.15,3.67H32.08l.13.2a6.57,6.57,0,0,1,.85,3.26V28.5c0,2.41-.59,3.17-.59,3.17H48.78l1.34-4.28-.4.45a5.72,5.72,0,0,1-4.16,1.56H36.82V16.48H47l.76-2.28h-11V6Z"/>
      <path d="M68.63,17.39h0a23.75,23.75,0,0,0-3.54-2c-1.28-.58-2.44-1.17-3.46-1.75A13.62,13.62,0,0,1,59,11.81a2.7,2.7,0,0,1-1-2,4.21,4.21,0,0,1,.4-1.84,4.53,4.53,0,0,1,2.62-2.31A7,7,0,0,1,65,5.56a14.33,14.33,0,0,1,2,.68,10.86,10.86,0,0,1,4.1,3.19l.3.41L70.8,5.41V5.35l-.17-.09a18.63,18.63,0,0,0-3.76-1.47,15.54,15.54,0,0,0-4-.51,11.86,11.86,0,0,0-3,.41A9.33,9.33,0,0,0,57,4.94a7.47,7.47,0,0,0-2.1,2.13,5.53,5.53,0,0,0-.83,3,5.06,5.06,0,0,0,1.16,3.31A11.45,11.45,0,0,0,58,15.83a35.58,35.58,0,0,0,3.54,1.94C62.81,18.36,64,19,65,19.59a12.26,12.26,0,0,1,2.63,2,3.31,3.31,0,0,1,1,2.4,6.09,6.09,0,0,1-.5,2.52,5.63,5.63,0,0,1-1.36,1.85,5.8,5.8,0,0,1-2.07,1.15,8.12,8.12,0,0,1-2.59.4,7.22,7.22,0,0,1-2.27-.39,14.66,14.66,0,0,1-2.32-1A17.47,17.47,0,0,1,55.39,27a14.72,14.72,0,0,1-1.75-1.63l-.78-.86.56,4.66.16.09a35.68,35.68,0,0,0,3.8,1.92,10.78,10.78,0,0,0,4.23.82,19.57,19.57,0,0,0,3.91-.4A11.07,11.07,0,0,0,69,30.27a7.53,7.53,0,0,0,2.53-2.55,7.66,7.66,0,0,0,1-4,6.12,6.12,0,0,0-1.15-3.7A11.81,11.81,0,0,0,68.63,17.39Z"/>
      <path d="M121,26.8a36.1,36.1,0,0,1-3.28-2.16,11.56,11.56,0,0,0,.7-2.51,19.57,19.57,0,0,0,.22-2.86c0-.89,0-1.8-.14-2.71s-.21-1.79-.34-2.68l-.05-.31h-4.81l.39.23a6,6,0,0,1,2.31,3,9.34,9.34,0,0,1,.39,2.92c0,.22,0,.51,0,.87s-.07.75-.12,1.1a5.53,5.53,0,0,1-.24,1c0,.14-.1.27-.15.38A51.08,51.08,0,0,1,111.39,19a49.92,49.92,0,0,1-3.83-4.58c.53-.26,1.08-.55,1.62-.86A10.19,10.19,0,0,0,111,12.22a6.76,6.76,0,0,0,1.39-1.76A4.73,4.73,0,0,0,113,8.13a4.94,4.94,0,0,0-.44-2.08,4.69,4.69,0,0,0-1.16-1.58,5.15,5.15,0,0,0-1.71-1,6.33,6.33,0,0,0-2.12-.35,7.1,7.1,0,0,0-2.37.39,5.76,5.76,0,0,0-2,1.13,5.38,5.38,0,0,0-1.32,1.79,5.45,5.45,0,0,0-.49,2.34,8.39,8.39,0,0,0,.56,2.88,10.7,10.7,0,0,0,1.11,2.22,11.27,11.27,0,0,0-4.08,3A7.84,7.84,0,0,0,97.24,22,10.73,10.73,0,0,0,98,26a9.52,9.52,0,0,0,2.09,3.16,9.26,9.26,0,0,0,3.24,2,11.52,11.52,0,0,0,4.09.71,9.63,9.63,0,0,0,4.95-1.27,12,12,0,0,0,3.48-3.12c.9.71,1.83,1.39,2.77,2.05a32,32,0,0,0,3.28,2l.24.13,3.31-3.26-.61-.17A15.7,15.7,0,0,1,121,26.8ZM105.07,28a8.54,8.54,0,0,1-2.52-1.54,7.53,7.53,0,0,1-1.77-2.3,6.44,6.44,0,0,1-.65-2.88,4.58,4.58,0,0,1,.36-1.82,6.52,6.52,0,0,1,1-1.57,7,7,0,0,1,1.44-1.27,12.8,12.8,0,0,1,1.42-.83,20.83,20.83,0,0,0,1.77,2.42c.82,1,1.73,2,2.68,3s1.92,2,2.89,2.88,1.59,1.46,2.25,2a5.79,5.79,0,0,1-2.47,1.8A8.6,8.6,0,0,1,105.07,28Zm1.22-15.42c-.22-.28-.41-.56-.59-.82s-.42-.63-.61-1a4.08,4.08,0,0,1-.38-1,6.09,6.09,0,0,1-.12-1.29,4.93,4.93,0,0,1,.16-1.28,3.19,3.19,0,0,1,.5-1,2.34,2.34,0,0,1,.84-.72,2.41,2.41,0,0,1,1.19-.27,2.9,2.9,0,0,1,1.28.26,3,3,0,0,1,1,.71,3.12,3.12,0,0,1,.63,1.07,4.2,4.2,0,0,1,.22,1.32,2.92,2.92,0,0,1-.37,1.52,3.76,3.76,0,0,1-1,1.07,9,9,0,0,1-1.42.83Z"/>
      <path d="M180.82,7.33a14.68,14.68,0,0,0-4.73-2.76,16.13,16.13,0,0,0-5.6-1,14.24,14.24,0,0,0-5.72,1.17A15.77,15.77,0,0,0,160,8a15.12,15.12,0,0,0-3.23,4.68,14.07,14.07,0,0,0-1.18,5.69,12.61,12.61,0,0,0,1.23,5.58,13.53,13.53,0,0,0,3.27,4.31A14.88,14.88,0,0,0,164.87,31a16.64,16.64,0,0,0,5.62,1,14.08,14.08,0,0,0,5.72-1.18,15.14,15.14,0,0,0,7.91-7.86,14,14,0,0,0,1.19-5.69,12.88,12.88,0,0,0-1.21-5.58A13.2,13.2,0,0,0,180.82,7.33ZM181.19,19a11.59,11.59,0,0,1-.77,4.3,9.25,9.25,0,0,1-2.18,3.26,10.08,10.08,0,0,1-3.38,2.09,12.39,12.39,0,0,1-4.77.74,5.72,5.72,0,0,1-1.26-.16,10.66,10.66,0,0,1-2.7-1,11.52,11.52,0,0,1-2.82-2.12,11.88,11.88,0,0,1-2-2.76,13.21,13.21,0,0,1-1.18-3.2,15.54,15.54,0,0,1-.39-3.51,11.2,11.2,0,0,1,.79-4.3A9.57,9.57,0,0,1,162.72,9a9.82,9.82,0,0,1,3.38-2.08,12.39,12.39,0,0,1,4.4-.75h.43a6.24,6.24,0,0,1,1.16.15,11.13,11.13,0,0,1,2.76,1,11.34,11.34,0,0,1,2.82,2.12,11.82,11.82,0,0,1,2,2.75,13.94,13.94,0,0,1,1.16,3.23A15.69,15.69,0,0,1,181.19,19Z"/>
      <path d="M233.46,11.83a13.62,13.62,0,0,0-3.17-4.3,14.63,14.63,0,0,0-4.61-2.82,15.1,15.1,0,0,0-5.49-1h-9.06l.16.21a6.14,6.14,0,0,1,1,3.44V28.61a3.2,3.2,0,0,1-1.22,2.81v.25H220a15,15,0,0,0,5.73-1.09,14.27,14.27,0,0,0,7.8-7.59,13.85,13.85,0,0,0,1.17-5.68A12.66,12.66,0,0,0,233.46,11.83Zm-2.89,6.94a11.55,11.55,0,0,1-.79,4.33h0a9.89,9.89,0,0,1-2.19,3.34,9.73,9.73,0,0,1-3.38,2.17,11.85,11.85,0,0,1-4.38.79h-3.74V6h2.14a12.79,12.79,0,0,1,5,1,11.5,11.5,0,0,1,3.88,2.71,12.11,12.11,0,0,1,2.51,4.07A14,14,0,0,1,230.57,18.77Z"/>
      <path d="M150.67,22.45h0a6.92,6.92,0,0,1-1.58.16h-6.73V6.78c0-.46,0-.92,0-1.37a6.48,6.48,0,0,1,.67-1.6l.07-.12H138l.47.18s.9.36.9,2.18V23a2,2,0,0,1-.58,1.66h13.51l1.12-3-.74.25A19.69,19.69,0,0,1,150.67,22.45Z"/>
      <path d="M205,3.69a.62.62,0,0,0-.52.3l-7.22,12L190,4a.62.62,0,0,0-.52-.3h-5.41l1.7,1.44a7.17,7.17,0,0,1,.74.72c.23.25.46.52.68.81a7.08,7.08,0,0,1,.67,1L194.63,19v9.27c0,2.14-.86,3-1.34,3.29v.16h6.52v-.15c-.54-.27-1.41-1-1.41-3.06V18.55l6.39-10.66c.46-.74.88-1.36,1.28-1.89,1.14-1.51,1.61-2.1,1.62-2.1l.17-.21Z"/>
      <path d="M149.87,28.41l-.29.18c-.57.35-1.28.8-3.85.8h-13V6.75c0-.23,0-.38,0-.53s0-.32,0-.55a2.41,2.41,0,0,1,.81-1.84l.18-.14h-6.05l.17.14a3.23,3.23,0,0,1,1.08,2.41V28.65a4,4,0,0,1-1,2.89v.13h21l1.29-3.42Z"/>
      <path d="M95.15,3.67H74.79l-2,4,.43-.32A8,8,0,0,1,75.8,6.08,10.64,10.64,0,0,1,77.41,6h5.7V28.34a5.09,5.09,0,0,1-1,3.18v.15h6v-.14a3.58,3.58,0,0,1-1.3-2.84V6h5.7a8.15,8.15,0,0,1,1.6.13,13.47,13.47,0,0,1,2.5,1l.36.18Z"/>
    </g>
  </g>
</svg>
