<?xml version="1.0" encoding="utf-8"?>
<!-- Generator: Adobe Illustrator 23.1.1, SVG Export Plug-In . SVG Version: 6.00 Build 0)  -->
<svg version="1.1" id="Layer_1" xmlns="http://www.w3.org/2000/svg" xmlns:xlink="http://www.w3.org/1999/xlink" x="0px" y="0px"
	 viewBox="0 0 482 140" style="enable-background:new 0 0 482 140;" xml:space="preserve">
<style type="text/css">
	.st0{fill:#D5CCB3;}
</style>
<title>Best&amp;amp;Lloyd_Logotype_gold_1840</title>
<g>
	<g>
		<polygon class="st0" points="198.9,117.1 199,119.5 203.2,117.9 203.2,132.5 205.8,132.5 205.8,114.5 199,117 		"/>
		<path class="st0" d="M227.7,121.1c2-1,4-2.9,4-5.6c0-3.7-2.8-6.2-6.9-6.2s-7.2,2.6-7.2,6.4c0,2.8,2,4.3,4.1,5.3
			c-1.8,0.7-4.5,2.6-4.5,5.8c0,4.6,4,6.2,7.4,6.2c5.1,0,7.4-3.3,7.4-6.5C232,123.7,230,122.2,227.7,121.1z M220.2,115.5
			c0-1.8,1.4-3.8,4.5-3.8c2.3-0.1,4.2,1.6,4.3,3.9c0,0.1,0,0.2,0,0.3c0,2.5-2.1,3.8-3.5,4.3h-0.1
			C222.7,118.9,220.2,117.8,220.2,115.5L220.2,115.5z M223.9,122l0.3,0.1c2.7,1.2,5.2,2.2,5.2,4.8s-1.7,3.8-4.7,3.8
			s-4.9-1.6-4.9-4.1C219.8,123.7,222.6,122.4,223.9,122L223.9,122z"/>
		<path class="st0" d="M254,129.5v-15h-2.2l-11.7,15.6v0.1l0.3,1.8h11.1v7.2h2.5V132h3.6l-0.1-2.5L254,129.5z M243.5,129.5l8-10.7
			v10.7H243.5z"/>
		<path class="st0" d="M274.1,114.6c-5.1,0-8.9,3.9-8.9,9.2c0,5.3,3.7,9.2,8.9,9.2s8.9-3.9,8.9-9.2S279.3,114.6,274.1,114.6z
			 M280.4,123.8c0,3.9-2.7,6.7-6.3,6.7s-6.3-2.8-6.3-6.7s2.6-6.7,6.3-6.7S280.4,119.9,280.4,123.8L280.4,123.8z"/>
	</g>
	<g>
		<path class="st0" d="M42.8,32.4c-1-1.7-2.4-3.3-4-4.5c-1.1-0.9-2.4-1.6-3.8-2c0.5-0.3,1.1-0.7,1.5-1c1-0.7,1.9-1.5,2.7-2.4
			c0.8-0.9,1.4-2,1.8-3.1c0.4-1.3,0.7-2.6,0.6-3.9c0.1-2.5-0.6-4.9-2-6.9c-1.3-1.7-3-3.1-5-3.9c-2.1-0.9-4.3-1.5-6.5-1.7
			c-2.3-0.2-6.6-0.4-8.8-0.4h-17l0.4,0.4c1.4,1.9,2.1,4.3,2,6.7v44.3c0,2.4-0.7,4.7-2,6.7L2.6,61h21.5c2.7,0,5.3-0.2,7.9-0.8
			c2.5-0.5,4.9-1.5,7-2.9c2.1-1.4,3.8-3.2,5-5.3c1.3-2.4,2-5.2,1.9-8c0-2-0.3-3.9-0.8-5.9C44.7,36.1,43.9,34.2,42.8,32.4z M33.7,20
			c-0.5,1-1.2,1.8-2.1,2.4c-0.9,0.7-2,1.2-3.1,1.5c-1.2,0.4-2.4,0.5-3.6,0.5H12.7V7.2h9.4c1.5,0,3,0.2,4.5,0.6c1.4,0.4,2.8,1,4,1.8
			c1.1,0.8,2.1,1.7,2.8,2.9c0.7,1.3,1.1,2.7,1,4.1C34.5,17.8,34.2,19,33.7,20z M38.3,44c0,1.8-0.3,3.6-1,5.3l0,0
			c-0.7,1.5-1.6,2.8-2.8,3.8c-1.3,1.1-2.7,1.9-4.3,2.3c-1.8,0.5-3.6,0.8-5.4,0.8H12.7v-27h9.7c4.9,0,8.8,1.2,11.7,3.7
			S38.3,39.1,38.3,44z"/>
		<path class="st0" d="M83.5,7.2c1.2,0,2.3,0.1,3.5,0.3c2.2,0.5,5.8,2.9,5.8,2.9l0.9,0.6l-4.5-8.6H55.6l0.3,0.4
			c1.2,2.1,1.8,4.4,1.8,6.8v44.7c0,5-1.2,6.6-1.2,6.6h34.1l2.8-9L92.5,53c-2.3,2.2-5.5,3.4-8.7,3.3H65.5v-27h21.3l1.6-4.8H65.5V7.2
			H83.5z"/>
		<path class="st0" d="M132.1,31.2L132.1,31.2c-2.3-1.6-4.8-3-7.4-4.2c-2.7-1.2-5.1-2.5-7.2-3.7c-1.9-1.1-3.8-2.4-5.4-3.9
			c-1.3-1.1-2-2.6-2-4.2c0-1.3,0.3-2.6,0.8-3.8c0.5-1.1,1.3-2.2,2.2-3c0.9-0.8,2-1.5,3.2-1.9c2.6-0.8,5.5-0.9,8.1-0.2
			c1.5,0.4,2.9,0.8,4.3,1.4c3.4,1.5,6.3,3.8,8.6,6.7l0.6,0.9L136.6,6V5.9l-0.4-0.2c-2.5-1.3-5.1-2.3-7.9-3.1
			c-2.7-0.7-5.6-1.1-8.4-1.1c-2.1,0-4.3,0.3-6.3,0.8c-2.1,0.5-4.1,1.4-5.9,2.6c-1.8,1.2-3.2,2.7-4.4,4.4c-1.2,1.9-1.8,4.1-1.7,6.3
			c-0.1,2.5,0.8,5,2.4,7c1.7,2,3.6,3.7,5.8,5.1c2.4,1.5,4.9,2.9,7.4,4.1c2.6,1.2,5,2.5,7.3,3.8c2,1.1,3.9,2.5,5.5,4.2
			c1.3,1.3,2,3.1,2,5c0,1.8-0.3,3.6-1,5.3c-0.7,1.5-1.6,2.8-2.9,3.9c-1.3,1.1-2.7,1.9-4.3,2.4c-1.8,0.6-3.6,0.9-5.4,0.8
			c-1.6,0-3.2-0.3-4.8-0.8c-1.7-0.6-3.3-1.3-4.9-2.2c-1.6-0.9-3.1-1.9-4.5-3c-1.3-1-2.5-2.2-3.7-3.4L99,46.2l1.2,9.7l0.3,0.2
			c2.6,1.5,5.3,2.8,8,4c2.8,1.2,5.8,1.8,8.8,1.7c2.8,0,5.5-0.3,8.2-0.8c2.6-0.5,5.1-1.5,7.3-2.8c2.2-1.3,4-3.2,5.3-5.3
			c1.4-2.5,2.1-5.4,2-8.3c0.1-2.8-0.8-5.5-2.4-7.7C136.2,34.6,134.3,32.7,132.1,31.2z"/>
		<path class="st0" d="M241.6,50.8c-2.4-1.4-4.7-2.9-6.9-4.5c0.7-1.7,1.2-3.5,1.4-5.2c0.3-2,0.5-4,0.5-6c0-1.9-0.1-3.8-0.3-5.7
			c-0.2-1.9-0.4-3.8-0.7-5.6l-0.1-0.6h-10.1l0.8,0.5c2.3,1.5,4,3.8,4.9,6.4c0.6,2,0.9,4,0.8,6.1c0,0.5,0,1.1-0.1,1.8
			s-0.1,1.6-0.2,2.3c-0.1,0.7-0.3,1.5-0.5,2.2c-0.1,0.3-0.2,0.5-0.3,0.8c-3.2-2.7-6.3-5.6-9.2-8.6c-2.9-3-5.5-6.2-8-9.6
			c1.1-0.5,2.3-1.1,3.4-1.8c1.4-0.8,2.7-1.7,3.9-2.8c1.2-1.1,2.2-2.3,2.9-3.7c0.8-1.5,1.2-3.2,1.2-4.9c0-1.5-0.3-3-0.9-4.4
			c-0.6-1.3-1.4-2.4-2.4-3.3c-1-0.9-2.3-1.6-3.6-2.1c-1.4-0.5-2.9-0.8-4.4-0.7c-1.7,0-3.4,0.3-5,0.8c-1.5,0.5-2.9,1.3-4.1,2.4
			c-1.2,1-2.1,2.3-2.8,3.7c-0.7,1.5-1,3.2-1,4.9c0,2.1,0.4,4.1,1.2,6c0.6,1.6,1.4,3.2,2.3,4.7c-3.3,1.4-6.2,3.5-8.6,6.2
			c-2.5,3-3.8,6.9-3.7,10.8c0,2.9,0.5,5.7,1.6,8.4c1,2.5,2.5,4.7,4.4,6.6c1.9,1.9,4.2,3.3,6.8,4.3c2.7,1,5.6,1.5,8.6,1.5
			c3.6,0.1,7.2-0.8,10.3-2.6c2.8-1.7,5.3-3.9,7.3-6.5c1.9,1.5,3.8,2.9,5.8,4.3c2.2,1.5,4.5,3,6.9,4.2l0.5,0.3l6.9-6.8l-1.3-0.3
			C246.8,53.4,244.1,52.3,241.6,50.8z M208.3,53.3c-1.9-0.8-3.7-1.8-5.3-3.2c-1.5-1.4-2.8-3-3.7-4.8c-0.9-1.9-1.4-3.9-1.4-6
			c0-1.3,0.3-2.6,0.8-3.8c0.5-1.2,1.2-2.3,2.1-3.3c0.9-1,1.9-1.9,3-2.6c1-0.6,2-1.2,3-1.7c1.1,1.8,2.4,3.5,3.7,5.1
			c1.7,2.1,3.6,4.2,5.6,6.3s4,4.1,6,6c1.7,1.7,3.3,3,4.7,4.2c-1.4,1.7-3.1,3-5.2,3.7C217.4,54.9,212.6,55,208.3,53.3L208.3,53.3z
			 M210.9,21.1c-0.4-0.6-0.9-1.2-1.2-1.7s-0.9-1.3-1.3-2c-0.4-0.6-0.6-1.3-0.8-2.1c-0.2-0.9-0.3-1.8-0.3-2.7c0-0.9,0.1-1.8,0.4-2.7
			c0.2-0.8,0.5-1.5,1-2.2c0.5-0.6,1.1-1.1,1.8-1.5c0.8-0.4,1.6-0.6,2.5-0.6c1.8,0,3.5,0.7,4.7,2c0.6,0.7,1.1,1.4,1.4,2.3
			c0.3,0.9,0.5,1.8,0.5,2.8c0,1.1-0.2,2.2-0.8,3.2c-0.5,0.9-1.2,1.6-2.1,2.2c-0.9,0.7-1.9,1.3-3,1.7L210.9,21.1z"/>
		<path class="st0" d="M366.8,10.1c-2.9-2.5-6.3-4.5-9.9-5.8c-3.8-1.3-7.7-2-11.7-2c-4.1,0-8.2,0.8-12,2.5c-3.7,1.6-7,3.9-9.9,6.7
			c-2.9,2.8-5.1,6.1-6.8,9.8c-1.7,3.8-2.5,7.8-2.5,11.9c0,4,0.8,8,2.6,11.7c1.7,3.4,4,6.5,6.9,9c2.9,2.5,6.3,4.5,9.9,5.8
			c3.8,1.3,7.8,2,11.8,2c4.1,0,8.2-0.8,12-2.5c7.4-3.2,13.3-9.1,16.6-16.4c1.7-3.8,2.5-7.8,2.5-11.9c0-4-0.8-8-2.5-11.7
			C372.1,15.7,369.7,12.6,366.8,10.1z M367.6,34.4c0,3.1-0.5,6.1-1.6,9c-1,2.6-2.6,4.9-4.6,6.8c-2,1.9-4.4,3.4-7.1,4.4
			c-3.2,1.2-6.6,1.7-10,1.5c-0.9,0-1.8-0.1-2.6-0.3c-2-0.5-3.9-1.2-5.7-2.1c-2.2-1.2-4.2-2.7-5.9-4.4c-1.7-1.7-3.1-3.7-4.2-5.8
			c-1.1-2.1-1.9-4.4-2.5-6.7c-0.5-2.4-0.8-4.9-0.8-7.3c0-3.1,0.5-6.1,1.6-9c1-2.6,2.6-4.9,4.6-6.8c2-1.9,4.4-3.4,7-4.4
			c3-1.1,6.1-1.6,9.2-1.6h0.9c0.8,0,1.6,0.1,2.4,0.3c6.8,1.6,12.6,6.1,15.8,12.4c1.1,2.1,1.9,4.4,2.4,6.8
			C367.3,29.5,367.6,32,367.6,34.4z"/>
		<path class="st0" d="M477,19.5c-1.6-3.4-3.9-6.5-6.6-9c-2.8-2.6-6.1-4.6-9.6-5.9c-3.7-1.4-7.6-2.1-11.5-2.1h-19l0.3,0.4
			c1.4,2.1,2.2,4.6,2.2,7.2v44.5c0,3.8-2.1,5.9-2.5,5.9V61h18.5c4.1,0,8.2-0.8,12-2.3c7.3-2.9,13.1-8.6,16.3-15.8
			c1.6-3.7,2.5-7.8,2.5-11.9C479.5,27,478.7,23.1,477,19.5z M470.9,34c0,3.1-0.5,6.2-1.6,9.1l0,0c-2.1,5.3-6.3,9.5-11.6,11.5
			c-2.9,1.1-6,1.7-9.2,1.6h-7.8v-49h4.5c3.6-0.1,7.2,0.6,10.6,2c3.1,1.3,5.8,3.3,8.1,5.8c2.3,2.5,4.1,5.4,5.2,8.5
			C470.3,26.9,470.9,30.4,470.9,34z"/>
		<path class="st0" d="M303.7,41.7L303.7,41.7c-1.1,0.2-2.2,0.3-3.3,0.3h-14.1V8.9c0-0.9,0-1.9,0.1-2.9c0.3-1.2,0.8-2.3,1.4-3.3
			l0.1-0.3h-10.8l1,0.4c0,0,1.8,0.8,1.8,4.6v35.4c0,2.6-1.2,3.5-1.2,3.5h28.3l2.4-6.3l-1.5,0.5C306.5,41,305.1,41.4,303.7,41.7z"/>
		<path class="st0" d="M417.5,2.5c-0.5,0-0.9,0.2-1.1,0.6l-15.1,25.1L386.1,3.1c-0.2-0.4-0.7-0.6-1.1-0.6h-11.3l3.5,3
			c0.5,0.5,1.1,1,1.6,1.5c0.5,0.5,1,1.1,1.4,1.7c0.5,0.7,1,1.4,1.4,2.2l14.1,23.6v19.4c0,4.5-1.8,6.2-2.8,6.9V61h13.7v-0.3
			c-1.1-0.6-3-2.2-3-6.4V33.6L417,11.3c1-1.6,1.8-2.8,2.7-3.9c2.4-3.2,3.4-4.4,3.4-4.4l0.4-0.4L417.5,2.5z"/>
		<path class="st0" d="M302.1,54.2l-0.6,0.4c-1.2,0.8-2.7,1.7-8,1.7h-27.4V8.9c0-0.4,0-0.7,0-1.1c0-0.3,0-0.7,0-1.2
			c0-1.5,0.6-2.9,1.7-3.8l0.4-0.3h-12.6l0.4,0.3c1.4,1.3,2.3,3.1,2.3,5.1v46.9c0.1,2.2-0.6,4.4-2.1,6V61H300l2.7-7.2L302.1,54.2z"/>
		<path class="st0" d="M187.6,2.5h-42.6l-4.2,8.4l0.9-0.7c0,0,3.1-2.3,5.5-2.7c1.1-0.2,2.2-0.3,3.4-0.3h11.9v46.9
			c0.1,2.4-0.7,4.7-2.1,6.7V61h12.6v-0.3c-1.8-1.5-2.8-3.7-2.7-5.9V7.2h11.9c1.1,0,2.2,0.1,3.4,0.3c1.8,0.5,3.6,1.2,5.2,2.1l0.7,0.4
			L187.6,2.5z"/>
	</g>
</g>
</svg>
