<svg xmlns="http://www.w3.org/2000/svg" xmlns:xlink="http://www.w3.org/1999/xlink" viewBox="0 0 478.34 132.33">
  <defs>
    <style>
      .cls-1 {
        fill: none;
      }

      .cls-2 {
        clip-path: url(#clip-path);
      }

      .cls-3 {
        fill: #cac3b4;
      }
    </style>
    <clipPath id="clip-path" transform="translate(-2.46 -1.24)">
      <rect class="cls-1" width="483.31" height="135.39"/>
    </clipPath>
  </defs>
  <title>Best&amp;amp;Lloyd_logo_gold_1840</title>
  <g id="Layer_2" data-name="Layer 2">
    <g id="Layer_1-2" data-name="Layer 1">
      <g id="Best_Lloyd_logo_gold_1840" data-name="Best&amp;Lloyd_logo_gold_1840">
        <g class="cls-2">
          <polygon class="cls-3" points="196.99 110.12 197.12 112.56 201.32 110.96 201.32 125.64 203.89 125.64 203.89 107.59 197.12 110.07 196.99 110.12"/>
          <g class="cls-2">
            <path class="cls-3" d="M228.29,115.41c2-1,4-2.94,4-5.64,0-3.69-2.79-6.17-6.94-6.17s-7.23,2.64-7.23,6.43c0,2.82,2,4.27,4.16,5.28-1.85.74-4.52,2.65-4.52,5.84,0,4.58,4,6.21,7.44,6.21,5.15,0,7.45-3.27,7.45-6.5,0-2.85-2.06-4.32-4.38-5.45m-7.5-5.64c0-1.86,1.41-3.85,4.51-3.85a4.11,4.11,0,0,1,4.36,4.14c0,2.5-2.15,3.79-3.49,4.36l-.13-.06c-2.7-1.14-5.25-2.22-5.25-4.59m3.7,6.51.3.13c2.7,1.16,5.24,2.24,5.24,4.77S228.3,125,225.3,125s-4.88-1.59-4.88-4.15c0-2.8,2.8-4.12,4.07-4.58" transform="translate(-2.46 -1.24)"/>
            <path class="cls-3" d="M254.68,123.84v-15h-2.23l-11.71,15.69-.05.07.33,1.78h11.13v7.23h2.53v-7.23h3.57l-.13-2.5Zm-10.55,0,8-10.74v10.74Z" transform="translate(-2.46 -1.24)"/>
            <path class="cls-3" d="M274.83,108.91c-5.15,0-8.9,3.88-8.9,9.22s3.75,9.23,8.9,9.23,9-3.88,9-9.23-3.77-9.22-9-9.22m6.37,9.22c0,3.9-2.68,6.73-6.37,6.73s-6.29-2.83-6.29-6.73,2.65-6.73,6.29-6.73,6.37,2.83,6.37,6.73" transform="translate(-2.46 -1.24)"/>
            <path class="cls-3" d="M43,32.52A16.59,16.59,0,0,0,39,28a12,12,0,0,0-3.76-2c.55-.33,1.06-.66,1.54-1a13.38,13.38,0,0,0,2.67-2.42,10,10,0,0,0,1.83-3.14,11.63,11.63,0,0,0,.63-4,11.17,11.17,0,0,0-2-6.94,12.77,12.77,0,0,0-5-3.93,21.72,21.72,0,0,0-6.54-1.73c-2.27-.24-6.59-.38-8.84-.38h-17l.39.45a10.64,10.64,0,0,1,2,6.72V54.05a12.16,12.16,0,0,1-1.95,6.74l-.31.42H24.12a36.7,36.7,0,0,0,8-.85,20.47,20.47,0,0,0,7-2.89,16,16,0,0,0,5-5.32,15.71,15.71,0,0,0,1.94-8.07,23.53,23.53,0,0,0-.78-5.87A21.57,21.57,0,0,0,43,32.52M33.79,20a7.41,7.41,0,0,1-2.11,2.44A10.47,10.47,0,0,1,28.56,24a12.19,12.19,0,0,1-3.57.55H12.77V7.23h9.47a17.23,17.23,0,0,1,4.47.6,13.69,13.69,0,0,1,4,1.76,9.46,9.46,0,0,1,2.82,2.92,7.88,7.88,0,0,1,1.06,4.17A6.91,6.91,0,0,1,33.79,20m4.63,24.16a12.57,12.57,0,0,1-1.06,5.28,11.19,11.19,0,0,1-2.85,3.85,12,12,0,0,1-4.32,2.34,18.18,18.18,0,0,1-5.45.79h-12V29.32h9.71c4.91,0,8.85,1.24,11.7,3.68s4.24,6.17,4.24,11.17" transform="translate(-2.46 -1.24)"/>
            <path class="cls-3" d="M83.76,7.23a17,17,0,0,1,3.45.28C89.47,8,93,10.4,93.07,10.43L94,11,89.44,2.46H55.73l.26.4A13.9,13.9,0,0,1,57.77,9.7V54.55c0,5.06-1.22,6.66-1.22,6.66H90.76l2.81-9-.83.94A12.11,12.11,0,0,1,84,56.43H65.67V29.32H87.08l1.6-4.77h-23V7.23Z" transform="translate(-2.46 -1.24)"/>
            <path class="cls-3" d="M132.41,31.24h0A48.9,48.9,0,0,0,125,27c-2.67-1.24-5.11-2.47-7.26-3.68a28.94,28.94,0,0,1-5.45-3.83,5.67,5.67,0,0,1-2-4.25,8.65,8.65,0,0,1,.84-3.86,9.5,9.5,0,0,1,2.24-3,9.77,9.77,0,0,1,3.25-1.88,14.39,14.39,0,0,1,8.17-.15A28,28,0,0,1,129,7.84a22.76,22.76,0,0,1,8.62,6.7l.63.86L137,6.1l0-.13-.35-.19a39.54,39.54,0,0,0-7.89-3.09,32.62,32.62,0,0,0-8.43-1.07,24.78,24.78,0,0,0-6.34.86A19.92,19.92,0,0,0,108,5.12a15.17,15.17,0,0,0-4.39,4.46,11.57,11.57,0,0,0-1.75,6.35,10.62,10.62,0,0,0,2.43,7A24.14,24.14,0,0,0,110.16,28,72.85,72.85,0,0,0,117.59,32c2.61,1.24,5.06,2.53,7.3,3.83a25.52,25.52,0,0,1,5.52,4.19,7,7,0,0,1,2,5,12.61,12.61,0,0,1-1.05,5.29,11.77,11.77,0,0,1-2.86,3.89,12.19,12.19,0,0,1-4.33,2.42,17.54,17.54,0,0,1-5.43.83,15,15,0,0,1-4.77-.83,28.83,28.83,0,0,1-4.88-2.18,34,34,0,0,1-4.49-3A32.39,32.39,0,0,1,101,48.05l-1.63-1.8L100.5,56l.33.2a74.72,74.72,0,0,0,8,4A22.48,22.48,0,0,0,117.68,62a40.09,40.09,0,0,0,8.22-.85,23,23,0,0,0,7.35-2.84,15.57,15.57,0,0,0,5.31-5.36,16,16,0,0,0,2-8.33,12.8,12.8,0,0,0-2.4-7.76,24.78,24.78,0,0,0-5.78-5.58" transform="translate(-2.46 -1.24)"/>
            <path class="cls-3" d="M242.24,51a71.29,71.29,0,0,1-6.88-4.54,24.49,24.49,0,0,0,1.45-5.27,38.83,38.83,0,0,0,.47-6,54.13,54.13,0,0,0-.3-5.67c-.2-1.87-.44-3.77-.72-5.64l-.09-.65h-10.1l.81.49A12.53,12.53,0,0,1,231.75,30a19.66,19.66,0,0,1,.8,6.13c0,.47,0,1.07-.08,1.83s-.14,1.57-.25,2.3a10.74,10.74,0,0,1-.51,2.17,5.4,5.4,0,0,1-.32.79,107.36,107.36,0,0,1-9.24-8.64,103.54,103.54,0,0,1-8-9.61c1.12-.55,2.26-1.16,3.4-1.8a22,22,0,0,0,3.89-2.82,14.38,14.38,0,0,0,2.92-3.7,10.08,10.08,0,0,0,1.18-4.89,10.36,10.36,0,0,0-.91-4.35,10.08,10.08,0,0,0-2.44-3.33A10.93,10.93,0,0,0,218.56,2a12.83,12.83,0,0,0-4.45-.75,14.87,14.87,0,0,0-5,.83A12.27,12.27,0,0,0,205,4.45a11.43,11.43,0,0,0-2.78,3.74,11.66,11.66,0,0,0-1,4.93,17.41,17.41,0,0,0,1.18,6,22.14,22.14,0,0,0,2.34,4.67,23.34,23.34,0,0,0-8.56,6.27,16.31,16.31,0,0,0-3.73,10.86A22.28,22.28,0,0,0,194,49.38,19.69,19.69,0,0,0,198.4,56a19.34,19.34,0,0,0,6.79,4.28,24.14,24.14,0,0,0,8.59,1.49,20.24,20.24,0,0,0,10.37-2.66,25,25,0,0,0,7.32-6.55c1.88,1.48,3.83,2.92,5.8,4.3a68.57,68.57,0,0,0,6.88,4.24l.51.28,7-6.85-1.29-.35A33.31,33.31,0,0,1,242.24,51m-33.35,2.5a18.15,18.15,0,0,1-5.29-3.23,16,16,0,0,1-3.71-4.84,13.44,13.44,0,0,1-1.38-6,9.4,9.4,0,0,1,.77-3.81,13.46,13.46,0,0,1,2.09-3.31,15,15,0,0,1,3-2.66,28.16,28.16,0,0,1,3-1.74A45,45,0,0,0,211.09,33c1.72,2.08,3.62,4.21,5.63,6.33s4,4.13,6.05,6c1.74,1.66,3.34,3,4.73,4.16a12.06,12.06,0,0,1-5.19,3.76,18,18,0,0,1-13.42.25m2.55-32.36c-.45-.6-.87-1.19-1.24-1.74a23,23,0,0,1-1.26-2,7.68,7.68,0,0,1-.8-2.07,11.93,11.93,0,0,1-.27-2.71,10.48,10.48,0,0,1,.35-2.68,6.54,6.54,0,0,1,1-2.21A5.37,5.37,0,0,1,211,6.21a5.23,5.23,0,0,1,2.51-.56,6.19,6.19,0,0,1,4.72,2A6.77,6.77,0,0,1,219.56,10a8.28,8.28,0,0,1,.46,2.76,6.05,6.05,0,0,1-.77,3.19,7.66,7.66,0,0,1-2.09,2.24,17.85,17.85,0,0,1-3,1.74l-2.72,1.25" transform="translate(-2.46 -1.24)"/>
            <path class="cls-3" d="M367.85,10.12a31.56,31.56,0,0,0-9.94-5.79,34.2,34.2,0,0,0-11.75-2,29.92,29.92,0,0,0-12,2.47,32.76,32.76,0,0,0-9.92,6.68,31.73,31.73,0,0,0-6.77,9.83A29.33,29.33,0,0,0,315,33.21a26.43,26.43,0,0,0,2.59,11.71,28.47,28.47,0,0,0,6.87,9,31,31,0,0,0,9.93,5.79,34.54,34.54,0,0,0,11.8,2,29.92,29.92,0,0,0,12-2.47,32.09,32.09,0,0,0,9.88-6.68,31.76,31.76,0,0,0,6.72-9.82,29.37,29.37,0,0,0,2.49-11.94,26.88,26.88,0,0,0-2.54-11.71,27.73,27.73,0,0,0-6.87-9.05m.76,24.41a24.27,24.27,0,0,1-1.61,9,19.37,19.37,0,0,1-4.58,6.85,21.09,21.09,0,0,1-7.1,4.39,26.44,26.44,0,0,1-10,1.55,12,12,0,0,1-2.64-.34A23.5,23.5,0,0,1,337,53.88a24.26,24.26,0,0,1-5.91-4.45,25.47,25.47,0,0,1-4.18-5.78,27.87,27.87,0,0,1-2.48-6.73,32.94,32.94,0,0,1-.82-7.36,23.68,23.68,0,0,1,1.66-9,20,20,0,0,1,4.58-6.86A20.45,20.45,0,0,1,337,9.3a26.21,26.21,0,0,1,9.23-1.57h.91a12.51,12.51,0,0,1,2.42.31,23.29,23.29,0,0,1,11.71,6.61,23.61,23.61,0,0,1,4.13,5.77,28.9,28.9,0,0,1,2.44,6.77,32.75,32.75,0,0,1,.82,7.33" transform="translate(-2.46 -1.24)"/>
            <path class="cls-3" d="M478.3,19.57a28.81,28.81,0,0,0-6.65-9A30.61,30.61,0,0,0,462,4.62a31.94,31.94,0,0,0-11.52-2.13h-19l.33.43A13,13,0,0,1,434,10.15V54.77c0,3.8-2.14,5.9-2.56,5.91v.53h18.54a31.48,31.48,0,0,0,12-2.3A29.89,29.89,0,0,0,478.35,43a29.33,29.33,0,0,0,2.44-11.93,26.68,26.68,0,0,0-2.49-11.49m-6.07,14.56a24.17,24.17,0,0,1-1.66,9.1h0a20.2,20.2,0,0,1-11.68,11.56,24.94,24.94,0,0,1-9.2,1.65h-7.83V7.27h4.49A26.65,26.65,0,0,1,457,9.32,24.44,24.44,0,0,1,465.09,15a25.78,25.78,0,0,1,5.27,8.54,29.84,29.84,0,0,1,1.87,10.6" transform="translate(-2.46 -1.24)"/>
            <path class="cls-3" d="M304.56,41.85h0a14.61,14.61,0,0,1-3.32.34H287.12V9c0-1,0-1.92.08-2.88a13.45,13.45,0,0,1,1.41-3.35l.14-.25H278l1,.38s1.87.75,1.87,4.57V42.92c0,2.64-1.21,3.49-1.21,3.49H308l2.35-6.3-1.55.54a39.43,39.43,0,0,1-4.19,1.2" transform="translate(-2.46 -1.24)"/>
            <path class="cls-3" d="M418.61,2.5a1.29,1.29,0,0,0-1.11.62L402.35,28.31,387.13,3.11A1.31,1.31,0,0,0,386,2.5H374.69l3.56,3A18.43,18.43,0,0,1,379.81,7c.48.53,1,1.1,1.42,1.7a16.9,16.9,0,0,1,1.41,2.16l14.18,23.64V54c0,4.48-1.8,6.25-2.82,6.9v.34h13.69v-.32c-1.14-.57-3-2.16-3-6.42V33.68L418.14,11.3c1-1.55,1.84-2.85,2.68-4,2.39-3.18,3.39-4.4,3.4-4.41l.36-.44Z" transform="translate(-2.46 -1.24)"/>
            <path class="cls-3" d="M302.89,54.37l-.6.36c-1.2.75-2.69,1.69-8.08,1.69H266.82V8.9c0-.46,0-.78,0-1.1s0-.67,0-1.16a5.06,5.06,0,0,1,1.71-3.86l.37-.29h-12.7l.36.28a6.79,6.79,0,0,1,2.28,5.07v47a8.45,8.45,0,0,1-2.1,6.07v.28h44l2.7-7.19Z" transform="translate(-2.46 -1.24)"/>
            <path class="cls-3" d="M188.08,2.46H145.34l-4.25,8.37.91-.66s3.15-2.31,5.47-2.66a22.17,22.17,0,0,1,3.38-.28h12v47a10.8,10.8,0,0,1-2.13,6.68v.32h12.67v-.29a7.54,7.54,0,0,1-2.72-6V7.23h11.95a16.56,16.56,0,0,1,3.36.28,28.66,28.66,0,0,1,5.25,2.11l.74.38Z" transform="translate(-2.46 -1.24)"/>
          </g>
        </g>
      </g>
    </g>
  </g>
</svg>
