<svg xmlns="http://www.w3.org/2000/svg" viewBox="0 0 471.2 59.81">
  <defs>
    <style>
      .cls-1 {
        fill: #cac3b4;
      }
    </style>
  </defs>
  <title>Asset 3</title>
  <g id="Layer_2" data-name="Layer 2">
    <g id="Layer_1-2" data-name="Layer 1">
      <g>
        <path class="cls-1" d="M39.9,30.81A16.57,16.57,0,0,0,36,26.31a11.73,11.73,0,0,0-3.71-2c.54-.32,1-.65,1.52-1A13.55,13.55,0,0,0,36.42,21a9.84,9.84,0,0,0,1.8-3.09,11.56,11.56,0,0,0,.62-3.9,11.06,11.06,0,0,0-2-6.84,12.66,12.66,0,0,0-5-3.88,21.42,21.42,0,0,0-6.44-1.69c-2.24-.25-6.49-.38-8.71-.38H0l.39.44a10.46,10.46,0,0,1,2,6.62V52A11.93,11.93,0,0,1,.46,58.65l-.31.42H21.34a36.92,36.92,0,0,0,7.84-.83,20.37,20.37,0,0,0,6.91-2.85,16,16,0,0,0,5-5.24A15.5,15.5,0,0,0,43,42.2a23.36,23.36,0,0,0-.77-5.79A21,21,0,0,0,39.9,30.81Zm-9-12.33a7.24,7.24,0,0,1-2.09,2.41,10.27,10.27,0,0,1-3.07,1.53A12.15,12.15,0,0,1,22.2,23h-12V5.9h9.32a17.14,17.14,0,0,1,4.41.59,13,13,0,0,1,3.93,1.74A9.07,9.07,0,0,1,30.6,11.1a7.76,7.76,0,0,1,1,4.1A6.79,6.79,0,0,1,30.87,18.48Zm4.55,23.8a12.39,12.39,0,0,1-1,5.21h0a11,11,0,0,1-2.81,3.79,11.62,11.62,0,0,1-4.25,2.3,18,18,0,0,1-5.37.79H10.16V27.66h9.57c4.83,0,8.71,1.22,11.52,3.62S35.42,37.36,35.42,42.28Z"/>
        <path class="cls-1" d="M80.09,5.9a17.19,17.19,0,0,1,3.4.27c2.22.47,5.74,2.85,5.77,2.88l.88.59L85.68,1.19H52.48l.26.41a13.74,13.74,0,0,1,1.75,6.73V52.51c0,5-1.21,6.56-1.21,6.56H87l2.77-8.85-.82.93a11.86,11.86,0,0,1-8.59,3.22H62.27V27.66H83.36L84.93,23H62.27V5.9Z"/>
        <path class="cls-1" d="M128,29.55h0a48.69,48.69,0,0,0-7.31-4.15c-2.63-1.22-5-2.43-7.15-3.62A28.11,28.11,0,0,1,108.18,18a5.58,5.58,0,0,1-2-4.19A8.55,8.55,0,0,1,107,10a9.32,9.32,0,0,1,5.41-4.76,14.15,14.15,0,0,1,8-.15,28.68,28.68,0,0,1,4.2,1.4,22.49,22.49,0,0,1,8.48,6.59l.63.85-1.3-9.16,0-.13-.35-.18a38.74,38.74,0,0,0-7.77-3,32.56,32.56,0,0,0-8.31-1,24.51,24.51,0,0,0-6.24.85A19.57,19.57,0,0,0,104,3.82a15.09,15.09,0,0,0-4.33,4.39,11.44,11.44,0,0,0-1.72,6.26,10.5,10.5,0,0,0,2.39,6.86,23.86,23.86,0,0,0,5.78,5,67.89,67.89,0,0,0,7.32,4c2.56,1.23,5,2.5,7.19,3.78A25,25,0,0,1,126,38.23a6.9,6.9,0,0,1,2,5,12.39,12.39,0,0,1-1,5.21,11.56,11.56,0,0,1-2.82,3.84,12,12,0,0,1-4.26,2.38,17.38,17.38,0,0,1-5.36.82,14.54,14.54,0,0,1-4.69-.82,27.68,27.68,0,0,1-4.81-2.15,32.73,32.73,0,0,1-4.42-3A31.41,31.41,0,0,1,97,46.11l-1.6-1.78L96.58,54l.33.19a71.59,71.59,0,0,0,7.86,4,22,22,0,0,0,8.73,1.7,38.93,38.93,0,0,0,8.1-.84,22.6,22.6,0,0,0,7.24-2.79,15.51,15.51,0,0,0,5.24-5.29,15.81,15.81,0,0,0,2-8.2,12.62,12.62,0,0,0-2.37-7.64A24.09,24.09,0,0,0,128,29.55Z"/>
        <path class="cls-1" d="M236.2,49a70.38,70.38,0,0,1-6.78-4.47,22.84,22.84,0,0,0,1.43-5.19,37.68,37.68,0,0,0,.47-5.91,52.77,52.77,0,0,0-.3-5.59c-.19-1.84-.43-3.71-.7-5.55l-.09-.64h-9.95l.8.48a12.42,12.42,0,0,1,4.79,6.23,19.38,19.38,0,0,1,.79,6c0,.47,0,1.06-.08,1.81s-.14,1.54-.24,2.27a12,12,0,0,1-.5,2.13,7.39,7.39,0,0,1-.32.78,104.24,104.24,0,0,1-9.1-8.51,103.36,103.36,0,0,1-7.93-9.46c1.11-.55,2.23-1.15,3.35-1.79a21.39,21.39,0,0,0,3.84-2.77,14.08,14.08,0,0,0,2.87-3.64,9.93,9.93,0,0,0,1.16-4.82,10.29,10.29,0,0,0-.89-4.29,10.12,10.12,0,0,0-2.4-3.28,10.9,10.9,0,0,0-3.54-2.1A12.94,12.94,0,0,0,208.5,0a14.7,14.7,0,0,0-4.91.81,12.25,12.25,0,0,0-4,2.34,11.1,11.1,0,0,0-3.75,8.54A17.12,17.12,0,0,0,197,17.63a21.5,21.5,0,0,0,2.31,4.6,23.08,23.08,0,0,0-8.44,6.18,16.05,16.05,0,0,0-3.67,10.7,22,22,0,0,0,1.53,8.31A19.36,19.36,0,0,0,193,54a18.91,18.91,0,0,0,6.69,4.21,23.64,23.64,0,0,0,8.46,1.48A20,20,0,0,0,218.39,57a24.79,24.79,0,0,0,7.21-6.46c1.85,1.46,3.77,2.88,5.71,4.23A66.61,66.61,0,0,0,238.09,59l.5.27,6.85-6.74-1.27-.34A33.14,33.14,0,0,1,236.2,49Zm-32.85,2.47a18,18,0,0,1-5.21-3.19,15.76,15.76,0,0,1-3.65-4.76,13.22,13.22,0,0,1-1.36-6,9.14,9.14,0,0,1,.76-3.75A13.07,13.07,0,0,1,196,30.55a14.85,14.85,0,0,1,3-2.62,30.27,30.27,0,0,1,2.94-1.71,43.54,43.54,0,0,0,3.66,5c1.7,2.06,3.57,4.15,5.55,6.24s4,4.07,6,6c1.73,1.63,3.29,3,4.67,4.1a12,12,0,0,1-5.12,3.7A17.76,17.76,0,0,1,203.35,51.47Zm2.51-31.88c-.44-.6-.85-1.17-1.22-1.71s-.86-1.3-1.24-2a7.73,7.73,0,0,1-.79-2,12.25,12.25,0,0,1-.26-2.67,10.11,10.11,0,0,1,.34-2.64,6.37,6.37,0,0,1,1-2.18,5.18,5.18,0,0,1,1.73-1.49,5.09,5.09,0,0,1,2.47-.56,6.2,6.2,0,0,1,2.64.54,6.11,6.11,0,0,1,2,1.47,6.67,6.67,0,0,1,1.3,2.22,8.34,8.34,0,0,1,.45,2.72,5.93,5.93,0,0,1-.76,3.14,7.62,7.62,0,0,1-2.06,2.22,18.37,18.37,0,0,1-2.95,1.71Z"/>
        <path class="cls-1" d="M359.94,8.74A31.16,31.16,0,0,0,350.16,3a33.73,33.73,0,0,0-11.58-2,29.37,29.37,0,0,0-11.83,2.44A32.28,32.28,0,0,0,317,10a31.25,31.25,0,0,0-6.66,9.69,28.78,28.78,0,0,0-2.45,11.76A26.1,26.1,0,0,0,310.4,43a27.91,27.91,0,0,0,6.77,8.91,30.26,30.26,0,0,0,9.79,5.7,33.94,33.94,0,0,0,11.62,2,29.29,29.29,0,0,0,11.82-2.44A31.34,31.34,0,0,0,366.76,41a28.82,28.82,0,0,0,2.45-11.76,26.49,26.49,0,0,0-2.5-11.53A27.28,27.28,0,0,0,359.94,8.74Zm.75,24a23.81,23.81,0,0,1-1.59,8.89,18.81,18.81,0,0,1-4.51,6.74,20.44,20.44,0,0,1-7,4.32,25.91,25.91,0,0,1-9.85,1.53,12.25,12.25,0,0,1-2.6-.33,23.1,23.1,0,0,1-5.59-2.09,23.52,23.52,0,0,1-5.82-4.38,25.06,25.06,0,0,1-4.12-5.7,27.46,27.46,0,0,1-2.44-6.63,32.55,32.55,0,0,1-.8-7.25A23.18,23.18,0,0,1,318,19a19.61,19.61,0,0,1,4.51-6.76,20.23,20.23,0,0,1,7-4.32,26,26,0,0,1,9.1-1.54h.89a13,13,0,0,1,2.39.3,23.27,23.27,0,0,1,11.54,6.51,24.12,24.12,0,0,1,4.06,5.69,28.07,28.07,0,0,1,2.41,6.67A32.87,32.87,0,0,1,360.69,32.79Z"/>
        <path class="cls-1" d="M468.75,18.06a28.43,28.43,0,0,0-6.56-8.9,30.14,30.14,0,0,0-9.54-5.83,31.46,31.46,0,0,0-11.34-2.1H422.59l.32.42a12.8,12.8,0,0,1,2.16,7.13V52.73c0,3.74-2.11,5.81-2.52,5.82v.52h18.26a31.18,31.18,0,0,0,11.86-2.26,29.49,29.49,0,0,0,16.12-15.68,28.86,28.86,0,0,0,2.41-11.75A26.15,26.15,0,0,0,468.75,18.06Zm-6,14.34a23.67,23.67,0,0,1-1.64,9h0a19.86,19.86,0,0,1-11.51,11.39,24.58,24.58,0,0,1-9.05,1.62h-7.72V5.93h4.43a26.22,26.22,0,0,1,10.43,2,24.17,24.17,0,0,1,8,5.59A25.31,25.31,0,0,1,460.92,22,29.13,29.13,0,0,1,462.77,32.4Z"/>
        <path class="cls-1" d="M297.6,40h0a14.28,14.28,0,0,1-3.28.33h-13.9V7.61c0-.94,0-1.89.08-2.84a13,13,0,0,1,1.39-3.29l.14-.25H271.39l1,.37s1.84.75,1.84,4.51v35c0,2.6-1.2,3.43-1.2,3.43h27.94l2.32-6.2-1.54.53A41.3,41.3,0,0,1,297.6,40Z"/>
        <path class="cls-1" d="M409.94,1.23a1.29,1.29,0,0,0-1.09.62L393.93,26.66l-15-24.82a1.29,1.29,0,0,0-1.08-.61H366.68l3.51,3a17.89,17.89,0,0,1,1.53,1.49c.48.52.95,1.08,1.41,1.67a18.57,18.57,0,0,1,1.39,2.14l14,23.28V51.94c0,4.42-1.77,6.16-2.78,6.8v.33h13.49v-.31c-1.12-.57-2.93-2.14-2.93-6.33V32l13.21-22c.95-1.53,1.82-2.81,2.64-3.91,2.35-3.13,3.34-4.33,3.35-4.34l.35-.43Z"/>
        <path class="cls-1" d="M296,52.33c-.2.11-.39.23-.59.36-1.18.74-2.65,1.66-7.95,1.66h-27V7.54c0-.45,0-.77,0-1.08s0-.66,0-1.15a5,5,0,0,1,1.68-3.8l.37-.28H250l.35.28a6.68,6.68,0,0,1,2.25,5V52.82a8.29,8.29,0,0,1-2.07,6v.28h43.34L296.58,52Z"/>
        <path class="cls-1" d="M182.85,1.19h-42.1l-4.18,8.26.89-.66s3.1-2.27,5.39-2.62a22.77,22.77,0,0,1,3.33-.27H158V52.18a10.59,10.59,0,0,1-2.1,6.57v.32h12.48v-.29a7.44,7.44,0,0,1-2.68-5.87V5.9h11.77a16.14,16.14,0,0,1,3.32.27,29,29,0,0,1,5.17,2.08l.73.38Z"/>
      </g>
    </g>
  </g>
</svg>
