<?xml version="1.0" encoding="utf-8"?>
<!-- Generator: Adobe Illustrator 24.1.2, SVG Export Plug-In . SVG Version: 6.00 Build 0)  -->
<svg version="1.1" id="Layer_1" xmlns="http://www.w3.org/2000/svg" xmlns:xlink="http://www.w3.org/1999/xlink" x="0px" y="0px"
	 viewBox="0 0 240 61" style="enable-background:new 0 0 240 61;" xml:space="preserve">
<style type="text/css">
	.st0{fill:#EDDCBE;}
</style>
<g>
	<g>
		<path class="st0" d="M21.6,16.2c-0.5-0.9-1.2-1.7-2-2.3c-0.6-0.4-1.2-0.8-1.9-1c0.3-0.2,0.5-0.3,0.8-0.5c0.5-0.3,0.9-0.8,1.3-1.2
			c0.4-0.5,0.7-1,0.9-1.6c0.2-0.6,0.3-1.2,0.3-2c0-1.4-0.3-2.6-1-3.5c-0.6-0.9-1.5-1.5-2.5-2c-1-0.4-2.1-0.7-3.2-0.9
			c-1.1-0.1-3.3-0.2-4.4-0.2H1.4c0,0,1.3,0.6,1.3,3.3V27c0,2.7-1.5,3.6-1.5,3.6h11c1.3,0,2.7-0.1,3.9-0.4c1.3-0.3,2.5-0.8,3.5-1.4
			c1-0.7,1.9-1.6,2.5-2.7c0.6-1.1,1-2.5,1-4c0-0.9-0.1-1.9-0.4-2.9C22.5,18.1,22.1,17.1,21.6,16.2z M17,10c-0.3,0.5-0.6,0.9-1,1.2
			c-0.4,0.3-1,0.6-1.5,0.8c-0.6,0.2-1.2,0.3-1.8,0.3H6.6V3.6h4.7c0.7,0,1.5,0.1,2.2,0.3c0.7,0.2,1.4,0.5,2,0.9
			c0.6,0.4,1,0.9,1.4,1.5c0.3,0.6,0.5,1.3,0.5,2.1C17.4,8.9,17.3,9.5,17,10z M19.3,22.1c0,1-0.2,1.9-0.5,2.6v0
			c-0.3,0.8-0.8,1.4-1.4,1.9c-0.6,0.5-1.3,0.9-2.1,1.2c-0.8,0.3-1.7,0.4-2.7,0.4H6.6V14.6h4.8c2.4,0,4.4,0.6,5.8,1.8
			C18.6,17.7,19.3,19.6,19.3,22.1z"/>
		<path class="st0" d="M41.4,3.6c2.8,0,4.4,1,4.4,1l-1.6-3.4H26.9c0,0,1.3,0.8,1.3,3.3V27c0,2.5-1.5,3.6-1.5,3.6h18.2l1.4-3.6
			c0,0-1.9,1.2-4.8,1.2h-9.4V14.6h11l0.8-2.4H32.1V3.6H41.4z"/>
		<path class="st0" d="M65.2,15.6L65.2,15.6c-1.1-0.8-2.4-1.5-3.7-2.1c-1.3-0.6-2.5-1.2-3.6-1.8c-1.1-0.6-2-1.2-2.7-1.9
			c-0.7-0.6-1-1.3-1-2.1c0-0.7,0.1-1.4,0.4-1.9c0.3-0.6,0.7-1.1,1.1-1.5c0.5-0.4,1-0.7,1.6-0.9c1.2-0.4,2.5-0.4,4-0.1
			c0.7,0.2,1.4,0.4,2.1,0.7c2.8,1.2,4.7,3.8,4.7,3.8L67.5,3l0-0.1l-0.2-0.1c-1.3-0.7-2.6-1.2-3.9-1.5c-1.3-0.4-2.7-0.5-4.2-0.5
			c-1,0-2.1,0.1-3.1,0.4C55,1.5,54,1.9,53.2,2.5c-0.9,0.6-1.6,1.3-2.2,2.2c-0.6,0.9-0.9,2-0.9,3.2c0,1.3,0.4,2.5,1.2,3.5
			c0.8,0.9,1.7,1.8,2.9,2.5c1.1,0.7,2.4,1.4,3.7,2c1.3,0.6,2.5,1.3,3.6,1.9c1.1,0.6,2,1.3,2.7,2.1c0.7,0.7,1,1.5,1,2.5
			c0,1-0.2,1.9-0.5,2.6c-0.3,0.8-0.8,1.4-1.4,1.9c-0.6,0.5-1.3,0.9-2.1,1.2c-0.8,0.3-1.7,0.4-2.7,0.4c-0.8,0-1.5-0.1-2.4-0.4
			c-0.8-0.3-1.7-0.7-2.4-1.1c-0.8-0.4-1.5-1-2.2-1.5c-0.7-0.6-1.3-1.1-1.8-1.7l-0.8-0.9l0.6,4.9l0.2,0.1c1.3,0.8,2.7,1.5,4,2
			c1.3,0.6,2.8,0.9,4.4,0.9c1.4,0,2.7-0.1,4.1-0.4c1.3-0.3,2.6-0.8,3.6-1.4c1.1-0.7,2-1.6,2.6-2.7c0.7-1.1,1-2.5,1-4.2
			c0-1.5-0.4-2.8-1.2-3.9C67.3,17.3,66.4,16.4,65.2,15.6z"/>
		<path class="st0" d="M119.9,25.8c-1.1-0.6-2.3-1.4-3.5-2.3c0.3-0.9,0.6-1.7,0.7-2.7c0.2-1,0.2-2,0.2-3c0-0.9-0.1-1.9-0.2-2.9
			c-0.1-0.9-0.2-1.9-0.4-2.8l0-0.3h-5.1l0.4,0.2c0,0,1.8,1.1,2.5,3.2c0.4,1.1,0.4,2.2,0.4,3.1c0,0.2,0,0.5,0,0.9
			c0,0.4-0.1,0.8-0.1,1.2c-0.1,0.4-0.1,0.7-0.3,1.1c-0.1,0.1-0.1,0.3-0.2,0.4c-1.7-1.4-3.3-2.8-4.7-4.4c-1.4-1.5-2.8-3.1-4.1-4.8
			c0.6-0.3,1.1-0.6,1.7-0.9c0.7-0.4,1.4-0.9,2-1.4c0.6-0.5,1.1-1.2,1.5-1.9c0.4-0.7,0.6-1.5,0.6-2.5c0-0.8-0.2-1.5-0.5-2.2
			c-0.3-0.7-0.7-1.2-1.2-1.7c-0.5-0.5-1.1-0.8-1.8-1.1c-0.7-0.2-1.4-0.4-2.3-0.4c-0.9,0-1.7,0.1-2.5,0.4c-0.8,0.3-1.5,0.7-2.1,1.2
			c-0.6,0.5-1.1,1.2-1.4,1.9c-0.3,0.7-0.5,1.6-0.5,2.5c0,1,0.2,2,0.6,3c0.3,0.9,0.7,1.7,1.2,2.4c-1.7,0.8-3.2,1.8-4.3,3.2
			c-1.3,1.5-1.9,3.3-1.9,5.5c0,1.5,0.3,3,0.8,4.3c0.5,1.3,1.3,2.4,2.2,3.3c1,0.9,2.1,1.7,3.4,2.2c1.3,0.5,2.8,0.8,4.4,0.8
			c2,0,3.7-0.5,5.3-1.3c1.4-0.8,2.7-1.9,3.7-3.3c1,0.7,1.9,1.5,2.9,2.2c1.1,0.8,2.3,1.5,3.5,2.1l0.3,0.1l3.5-3.4l-0.7-0.2
			C122.5,27,121.1,26.5,119.9,25.8z M103,27.1c-1-0.4-1.9-0.9-2.7-1.6c-0.8-0.7-1.4-1.5-1.9-2.4c-0.5-0.9-0.7-1.9-0.7-3
			c0-0.7,0.1-1.3,0.4-1.9c0.3-0.6,0.6-1.2,1.1-1.7c0.4-0.5,1-1,1.5-1.3c0.5-0.3,1-0.6,1.5-0.9c0.5,0.8,1.1,1.6,1.9,2.6
			c0.9,1.1,1.8,2.1,2.9,3.2c1,1.1,2,2.1,3.1,3c0.9,0.8,1.7,1.5,2.4,2.1c-0.7,0.8-1.6,1.5-2.6,1.9C107.4,27.9,105.1,27.9,103,27.1z
			 M104.3,10.8c-0.2-0.3-0.4-0.6-0.6-0.9c-0.2-0.3-0.4-0.7-0.6-1c-0.2-0.3-0.3-0.7-0.4-1c-0.1-0.4-0.1-0.8-0.1-1.4
			c0-0.5,0.1-0.9,0.2-1.4c0.1-0.4,0.3-0.8,0.5-1.1c0.2-0.3,0.5-0.6,0.9-0.8c0.3-0.2,0.8-0.3,1.3-0.3c0.5,0,1,0.1,1.4,0.3
			c0.4,0.2,0.7,0.4,1,0.8c0.3,0.3,0.5,0.7,0.7,1.1c0.2,0.4,0.2,0.9,0.2,1.4c0,0.6-0.1,1.2-0.4,1.6c-0.3,0.4-0.6,0.8-1.1,1.1
			c-0.5,0.3-1,0.6-1.5,0.9C105.2,10.4,104.7,10.6,104.3,10.8z"/>
		<path class="st0" d="M182.2,4.8c-1.4-1.3-3.1-2.3-4.9-3c-1.8-0.7-3.8-1-5.8-1c-2.1,0-4.1,0.4-5.9,1.3c-1.9,0.8-3.5,2-4.9,3.4
			c-1.4,1.4-2.5,3.1-3.3,5c-0.8,1.9-1.2,4-1.2,6.1c0,2.2,0.4,4.2,1.3,6c0.8,1.8,2,3.4,3.4,4.6c1.4,1.3,3.1,2.3,4.9,3
			c1.9,0.7,3.8,1,5.8,1c2.1,0,4.1-0.4,5.9-1.3c1.9-0.8,3.5-2,4.9-3.4c1.4-1.4,2.5-3.1,3.3-5c0.8-1.9,1.2-4,1.2-6.1
			c0-2.2-0.4-4.2-1.3-6C184.8,7.6,183.7,6,182.2,4.8z M182.6,17.3c0,1.7-0.3,3.3-0.8,4.6c-0.5,1.4-1.3,2.6-2.3,3.5
			c-1,1-2.2,1.7-3.5,2.3c-1.5,0.6-3.1,0.8-5,0.8c-0.5,0-0.9-0.1-1.3-0.2c-1-0.2-1.9-0.6-2.8-1.1c-1.1-0.6-2.1-1.4-2.9-2.3
			c-0.8-0.9-1.5-1.9-2.1-3c-0.5-1.1-1-2.2-1.2-3.5c-0.3-1.2-0.4-2.5-0.4-3.8c0-1.7,0.3-3.2,0.8-4.6c0.5-1.4,1.3-2.6,2.3-3.5
			c1-1,2.1-1.7,3.5-2.2c1.4-0.5,2.9-0.8,4.6-0.8c0.2,0,0.3,0,0.5,0c0.4,0,0.8,0.1,1.2,0.2c1,0.2,2,0.6,2.9,1.1
			c1.1,0.6,2.1,1.4,2.9,2.3c0.8,0.9,1.5,1.9,2,3c0.5,1.1,0.9,2.2,1.2,3.5C182.5,14.7,182.6,16,182.6,17.3z"/>
		<path class="st0" d="M237.5,9.8c-0.8-1.7-1.9-3.3-3.3-4.5c-1.4-1.3-3-2.3-4.8-3c-1.8-0.7-3.7-1.1-5.7-1.1h-10.1
			c0,0,1.4,1.2,1.4,3.4v22.7c0,2-1.3,3.4-1.3,3.4h9.8c2.1,0,4.2-0.4,6-1.2c1.8-0.8,3.5-1.8,4.8-3.2c1.4-1.3,2.5-3,3.3-4.8
			c0.8-1.8,1.2-3.8,1.2-6C238.8,13.4,238.4,11.5,237.5,9.8z M234.5,17c0,1.7-0.3,3.2-0.8,4.6v0c-0.5,1.4-1.3,2.5-2.3,3.5
			c-1,1-2.1,1.7-3.5,2.3c-1.4,0.5-2.9,0.8-4.6,0.8h-4.5l0-24.6h2.8c1.9,0,3.7,0.3,5.2,1c1.6,0.7,2.9,1.6,4,2.8
			c1.1,1.2,2,2.6,2.6,4.3C234.2,13.4,234.5,15.2,234.5,17z"/>
		<path class="st0" d="M148.6,21.1h-7V4.5c0-1.8,0.8-3.3,0.8-3.3h-4.9c0,0,1,1.3,1,3.4v16.3c0,1.6-0.6,2.4-0.6,2.4h14L153,20
			C153,20,151.9,21.1,148.6,21.1z"/>
		<path class="st0" d="M145.8,28.2H133V4.5c0-2,1-3.3,1-3.3h-5.8c0,0,0.9,1.1,0.9,3.3v22.2c0,2.8-1.3,3.9-1.3,3.9H149l1.5-3.7
			C150.5,27,149,28.2,145.8,28.2z"/>
		<path class="st0" d="M92.6,1.2H71.4l-1.3,3.3c0,0,1.4-0.9,4.1-0.9H80V27c0,3.1-1.5,3.6-1.5,3.6h6.3l0.6,0c0,0-1.5-0.7-1.5-3.6V3.6
			h5.9c2.7,0,4.1,0.9,4.1,0.9L92.6,1.2z"/>
		<path class="st0" d="M207,1.2C207,1.2,207,1.2,207,1.2l-7.7,13l-7.8-13h-5.9c1.5,0.8,3,2.9,3.3,3.2c0.2,0.3,0.5,0.7,0.7,1.1
			l7,11.8V27c0,2.2-1.5,3.6-1.5,3.6h7c0,0-1.5-1.1-1.5-3.6l0-10.2l6.6-11.2c0.5-0.8,1.4-2.4,1.8-2.9c0.9-1.3,1.1-1.3,1.3-1.5H207z"
			/>
	</g>
	<g>
		<polygon class="st0" points="102.4,51.2 102.5,52.2 104.2,51.5 104.2,57.7 105.3,57.7 105.3,50.1 102.5,51.2 		"/>
		<path class="st0" d="M114.4,52.9c0.8-0.4,1.7-1.2,1.7-2.3c0-1.5-1.2-2.6-2.9-2.6c-1.8,0-3,1.1-3,2.7c0,1.2,0.8,1.8,1.7,2.2
			c-0.8,0.3-1.9,1.1-1.9,2.4c0,1.9,1.7,2.6,3.1,2.6c2.1,0,3.1-1.4,3.1-2.7C116.3,54,115.4,53.3,114.4,52.9z M111.3,50.5
			c0-0.8,0.6-1.6,1.9-1.6c1.1,0,1.8,0.7,1.8,1.7c0,1-0.9,1.6-1.5,1.8l-0.1,0C112.4,52,111.3,51.5,111.3,50.5z M112.9,53.2l0.1,0.1
			c1.1,0.5,2.2,0.9,2.2,2c0,1-0.7,1.6-2,1.6c-1.3,0-2-0.7-2-1.7C111.2,54,112.3,53.4,112.9,53.2z"/>
		<path class="st0" d="M125.4,56.6v-6.5h-0.9l-4.9,6.8l0,0l0.1,0.7h4.6v2.8h1.1v-2.8h1.5l-0.1-1H125.4z M121,56.6l3.3-4.7v4.7H121z"
			/>
		<path class="st0" d="M133.8,50.2c-2.1,0-3.7,1.6-3.7,3.8s1.6,3.8,3.7,3.8c2.2,0,3.7-1.6,3.7-3.8S136,50.2,133.8,50.2z M136.5,54
			c0,1.6-1.1,2.8-2.6,2.8c-1.5,0-2.6-1.2-2.6-2.8c0-1.6,1.1-2.8,2.6-2.8C135.4,51.2,136.5,52.4,136.5,54z"/>
	</g>
</g>
</svg>
