<?xml version="1.0" encoding="utf-8"?>
<!-- Generator: Adobe Illustrator 24.1.2, SVG Export Plug-In . SVG Version: 6.00 Build 0)  -->
<svg version="1.1" id="Layer_1" xmlns="http://www.w3.org/2000/svg" xmlns:xlink="http://www.w3.org/1999/xlink" x="0px" y="0px"
	 viewBox="0 0 240 68" style="enable-background:new 0 0 240 68;" xml:space="preserve">
<style type="text/css">
	.st0{fill:#EDDCBE;}
</style>
<g>
	<g>
		<path class="st0" d="M21.6,16.8c-0.5-0.9-1.2-1.7-2-2.4c-0.6-0.5-1.2-0.8-1.9-1c0.3-0.2,0.5-0.3,0.8-0.5c0.5-0.4,0.9-0.8,1.3-1.3
			c0.4-0.5,0.7-1,0.9-1.6c0.2-0.6,0.3-1.3,0.3-2.1c0-1.5-0.3-2.7-1-3.6c-0.6-0.9-1.5-1.6-2.5-2c-1-0.5-2.1-0.8-3.2-0.9
			c-1.1-0.1-3.3-0.2-4.4-0.2H1.4c0,0,1.3,0.6,1.3,3.5V28c0,2.8-1.5,3.7-1.5,3.7h11c1.3,0,2.7-0.1,3.9-0.4c1.3-0.3,2.5-0.8,3.5-1.5
			c1-0.7,1.9-1.6,2.5-2.8c0.6-1.1,1-2.5,1-4.2c0-1-0.1-2-0.4-3.1C22.5,18.7,22.1,17.7,21.6,16.8z M17,10.3c-0.3,0.5-0.6,0.9-1,1.3
			c-0.4,0.3-1,0.6-1.5,0.8c-0.6,0.2-1.2,0.3-1.8,0.3H6.6v-9h4.7c0.7,0,1.5,0.1,2.2,0.3c0.7,0.2,1.4,0.5,2,0.9c0.6,0.4,1,0.9,1.4,1.5
			c0.3,0.6,0.5,1.3,0.5,2.2C17.4,9.2,17.3,9.8,17,10.3z M19.3,22.9c0,1-0.2,2-0.5,2.7v0c-0.3,0.8-0.8,1.5-1.4,2
			c-0.6,0.5-1.3,0.9-2.1,1.2c-0.8,0.3-1.7,0.4-2.7,0.4H6.6V15.2h4.8c2.4,0,4.4,0.6,5.8,1.9C18.6,18.3,19.3,20.3,19.3,22.9z"/>
		<path class="st0" d="M41.4,3.7c2.8,0,4.4,1,4.4,1l-1.6-3.5H26.9c0,0,1.3,0.8,1.3,3.5V28c0,2.6-1.5,3.7-1.5,3.7h18.2l1.4-3.8
			c0,0-1.9,1.3-4.8,1.3h-9.4V15.2h11l0.8-2.5H32.1v-9H41.4z"/>
		<path class="st0" d="M65.2,16.2L65.2,16.2c-1.1-0.8-2.4-1.6-3.7-2.2c-1.3-0.6-2.5-1.3-3.6-1.9c-1.1-0.6-2-1.3-2.7-2
			c-0.7-0.6-1-1.4-1-2.2c0-0.7,0.1-1.4,0.4-2c0.3-0.6,0.7-1.1,1.1-1.5c0.5-0.4,1-0.7,1.6-1c1.2-0.4,2.5-0.5,4-0.1
			c0.7,0.2,1.4,0.4,2.1,0.7c2.8,1.3,4.7,3.9,4.7,3.9l-0.8-4.8l0-0.1l-0.2-0.1c-1.3-0.7-2.6-1.2-3.9-1.6c-1.3-0.4-2.7-0.6-4.2-0.6
			c-1,0-2.1,0.1-3.1,0.4C55,1.5,54,2,53.2,2.6C52.3,3.2,51.5,4,51,4.9c-0.6,0.9-0.9,2.1-0.9,3.3c0,1.4,0.4,2.6,1.2,3.6
			c0.8,1,1.7,1.9,2.9,2.6c1.1,0.7,2.4,1.5,3.7,2.1c1.3,0.6,2.5,1.3,3.6,2c1.1,0.7,2,1.4,2.7,2.2c0.7,0.7,1,1.6,1,2.6
			c0,1-0.2,2-0.5,2.7c-0.3,0.8-0.8,1.5-1.4,2c-0.6,0.6-1.3,1-2.1,1.3c-0.8,0.3-1.7,0.4-2.7,0.4c-0.8,0-1.5-0.1-2.4-0.4
			c-0.8-0.3-1.7-0.7-2.4-1.1c-0.8-0.5-1.5-1-2.2-1.6c-0.7-0.6-1.3-1.2-1.8-1.8L48.9,24l0.6,5.1l0.2,0.1c1.3,0.8,2.7,1.5,4,2.1
			c1.3,0.6,2.8,0.9,4.4,0.9c1.4,0,2.7-0.1,4.1-0.4c1.3-0.3,2.6-0.8,3.6-1.5c1.1-0.7,2-1.6,2.6-2.8c0.7-1.2,1-2.6,1-4.3
			c0-1.5-0.4-2.9-1.2-4C67.3,18,66.4,17,65.2,16.2z"/>
		<path class="st0" d="M119.9,26.8c-1.1-0.7-2.3-1.5-3.5-2.4c0.3-0.9,0.6-1.8,0.7-2.8c0.2-1,0.2-2.1,0.2-3.1c0-1-0.1-2-0.2-3
			c-0.1-1-0.2-2-0.4-2.9l0-0.3h-5.1l0.4,0.3c0,0,1.8,1.1,2.5,3.3c0.4,1.1,0.4,2.3,0.4,3.2c0,0.2,0,0.6,0,1c0,0.4-0.1,0.8-0.1,1.2
			c-0.1,0.4-0.1,0.8-0.3,1.1c-0.1,0.2-0.1,0.3-0.2,0.4c-1.7-1.4-3.3-3-4.7-4.5c-1.4-1.6-2.8-3.3-4.1-5c0.6-0.3,1.1-0.6,1.7-0.9
			c0.7-0.4,1.4-0.9,2-1.5c0.6-0.6,1.1-1.2,1.5-1.9c0.4-0.7,0.6-1.6,0.6-2.6c0-0.8-0.2-1.6-0.5-2.3c-0.3-0.7-0.7-1.3-1.2-1.7
			c-0.5-0.5-1.1-0.9-1.8-1.1c-0.7-0.3-1.4-0.4-2.3-0.4c-0.9,0-1.7,0.1-2.5,0.4c-0.8,0.3-1.5,0.7-2.1,1.2c-0.6,0.5-1.1,1.2-1.4,2
			C99.3,5.1,99.1,6,99.1,7c0,1,0.2,2.1,0.6,3.2c0.3,0.9,0.7,1.7,1.2,2.4c-1.7,0.8-3.2,1.9-4.3,3.3c-1.3,1.5-1.9,3.4-1.9,5.7
			c0,1.6,0.3,3.1,0.8,4.4c0.5,1.3,1.3,2.5,2.2,3.5c1,1,2.1,1.7,3.4,2.2c1.3,0.5,2.8,0.8,4.4,0.8c2,0,3.7-0.5,5.3-1.4
			c1.4-0.8,2.7-2,3.7-3.4c1,0.8,1.9,1.5,2.9,2.3c1.1,0.8,2.3,1.5,3.5,2.2l0.3,0.1l3.5-3.6l-0.7-0.2C122.5,28,121.1,27.5,119.9,26.8z
			 M103,28.1c-1-0.4-1.9-1-2.7-1.7c-0.8-0.7-1.4-1.6-1.9-2.5c-0.5-1-0.7-2-0.7-3.2c0-0.7,0.1-1.4,0.4-2c0.3-0.6,0.6-1.2,1.1-1.7
			c0.4-0.5,1-1,1.5-1.4c0.5-0.3,1-0.6,1.5-0.9c0.5,0.8,1.1,1.7,1.9,2.7c0.9,1.1,1.8,2.2,2.9,3.3c1,1.1,2,2.2,3.1,3.2
			c0.9,0.9,1.7,1.6,2.4,2.2c-0.7,0.9-1.6,1.5-2.6,2C107.4,28.9,105.1,28.9,103,28.1z M104.3,11.2c-0.2-0.3-0.4-0.6-0.6-0.9
			c-0.2-0.3-0.4-0.7-0.6-1c-0.2-0.3-0.3-0.7-0.4-1.1c-0.1-0.4-0.1-0.9-0.1-1.4c0-0.5,0.1-0.9,0.2-1.4c0.1-0.4,0.3-0.8,0.5-1.2
			c0.2-0.3,0.5-0.6,0.9-0.8c0.3-0.2,0.8-0.3,1.3-0.3c0.5,0,1,0.1,1.4,0.3c0.4,0.2,0.7,0.5,1,0.8c0.3,0.3,0.5,0.7,0.7,1.2
			c0.2,0.5,0.2,0.9,0.2,1.4c0,0.7-0.1,1.2-0.4,1.7c-0.3,0.5-0.6,0.8-1.1,1.2c-0.5,0.3-1,0.6-1.5,0.9
			C105.2,10.7,104.7,10.9,104.3,11.2z"/>
		<path class="st0" d="M182.2,4.9c-1.4-1.3-3.1-2.4-4.9-3.1c-1.8-0.7-3.8-1.1-5.8-1.1c-2.1,0-4.1,0.4-5.9,1.3
			c-1.9,0.9-3.5,2.1-4.9,3.6c-1.4,1.5-2.5,3.2-3.3,5.2c-0.8,2-1.2,4.1-1.2,6.4c0,2.3,0.4,4.4,1.3,6.2c0.8,1.9,2,3.5,3.4,4.8
			c1.4,1.3,3.1,2.4,4.9,3.1c1.9,0.7,3.8,1.1,5.8,1.1c2.1,0,4.1-0.4,5.9-1.3c1.9-0.9,3.5-2.1,4.9-3.6c1.4-1.5,2.5-3.2,3.3-5.2
			c0.8-2,1.2-4.1,1.2-6.4c0-2.3-0.4-4.4-1.3-6.2C184.8,7.9,183.7,6.2,182.2,4.9z M182.6,17.9c0,1.8-0.3,3.4-0.8,4.8
			c-0.5,1.4-1.3,2.6-2.3,3.6c-1,1-2.2,1.8-3.5,2.3c-1.5,0.6-3.1,0.9-5,0.8c-0.5,0-0.9-0.1-1.3-0.2c-1-0.3-1.9-0.6-2.8-1.1
			c-1.1-0.6-2.1-1.4-2.9-2.4c-0.8-0.9-1.5-2-2.1-3.1c-0.5-1.1-1-2.3-1.2-3.6c-0.3-1.3-0.4-2.6-0.4-3.9c0-1.8,0.3-3.4,0.8-4.8
			c0.5-1.4,1.3-2.7,2.3-3.6c1-1,2.1-1.8,3.5-2.3c1.4-0.6,2.9-0.8,4.6-0.8c0.2,0,0.3,0,0.5,0c0.4,0,0.8,0.1,1.2,0.2
			c1,0.3,2,0.6,2.9,1.1c1.1,0.7,2.1,1.4,2.9,2.4c0.8,0.9,1.5,2,2,3.1c0.5,1.1,0.9,2.3,1.2,3.6C182.5,15.3,182.6,16.6,182.6,17.9z"/>
		<path class="st0" d="M237.5,10.1c-0.8-1.8-1.9-3.4-3.3-4.7c-1.4-1.3-3-2.3-4.8-3.1c-1.8-0.7-3.7-1.1-5.7-1.1h-10.1
			c0,0,1.4,1.3,1.4,3.5v23.5c0,2.1-1.3,3.5-1.3,3.5h9.8c2.1,0,4.2-0.4,6-1.2c1.8-0.8,3.5-1.9,4.8-3.3c1.4-1.4,2.5-3.1,3.3-5
			c0.8-1.9,1.2-4,1.2-6.2C238.8,13.9,238.4,11.9,237.5,10.1z M234.5,17.7c0,1.7-0.3,3.3-0.8,4.7v0c-0.5,1.4-1.3,2.6-2.3,3.6
			c-1,1-2.1,1.8-3.5,2.4c-1.4,0.6-2.9,0.9-4.6,0.9h-4.5l0-25.5h2.8c1.9,0,3.7,0.4,5.2,1.1c1.6,0.7,2.9,1.7,4,2.9
			c1.1,1.3,2,2.7,2.6,4.4C234.2,13.9,234.5,15.7,234.5,17.7z"/>
		<path class="st0" d="M148.6,21.8h-7V4.7c0-1.9,0.8-3.5,0.8-3.5h-4.9c0,0,1,1.3,1,3.5v16.9c0,1.7-0.6,2.5-0.6,2.5h14l1.2-3.3
			C153,20.8,151.9,21.8,148.6,21.8z"/>
		<path class="st0" d="M145.8,29.2H133V4.7c0-2,1-3.5,1-3.5h-5.8c0,0,0.9,1.1,0.9,3.5v23.1c0,2.9-1.3,4.1-1.3,4.1H149l1.5-3.8
			C150.5,28,149,29.2,145.8,29.2z"/>
		<path class="st0" d="M92.6,1.2H71.4l-1.3,3.4c0,0,1.4-1,4.1-1H80V28c0,3.3-1.5,3.7-1.5,3.7h6.3l0.6,0c0,0-1.5-0.7-1.5-3.8V3.7h5.9
			c2.7,0,4.1,1,4.1,1L92.6,1.2z"/>
		<path class="st0" d="M207,1.2C207,1.2,207,1.2,207,1.2l-7.7,13.5l-7.8-13.5h-5.9c1.5,0.8,3,3,3.3,3.3c0.2,0.3,0.5,0.7,0.7,1.1
			l7,12.3V28c0,2.3-1.5,3.8-1.5,3.8h7c0,0-1.5-1.1-1.5-3.7l0-10.6l6.6-11.6c0.5-0.8,1.4-2.5,1.8-3.1c0.9-1.3,1.1-1.4,1.3-1.6H207z"
			/>
	</g>
	<g>
		<polygon class="st0" points="98.4,54.3 98.4,55.6 100.6,54.8 100.6,62.3 101.9,62.3 101.9,53 98.4,54.3 		"/>
		<path class="st0" d="M113.2,56.4c1-0.5,2.1-1.5,2.1-2.9c0-1.9-1.4-3.2-3.6-3.2c-2.2,0-3.7,1.4-3.7,3.3c0,1.4,1,2.2,2.1,2.7
			c-0.9,0.4-2.3,1.4-2.3,3c0,2.4,2.1,3.2,3.8,3.2c2.6,0,3.8-1.7,3.8-3.3C115.4,57.8,114.3,57,113.2,56.4z M109.3,53.5
			c0-1,0.7-2,2.3-2c1.3,0,2.2,0.9,2.2,2.1c0,1.3-1.1,1.9-1.8,2.2l-0.1,0C110.6,55.3,109.3,54.7,109.3,53.5z M111.2,56.9l0.2,0.1
			c1.4,0.6,2.7,1.1,2.7,2.4c0,1.2-0.9,2-2.4,2c-1.5,0-2.5-0.8-2.5-2.1C109.1,57.8,110.6,57.1,111.2,56.9z"/>
		<path class="st0" d="M126.7,61v-8h-1.1l-6,8.3l0,0l0.2,0.9h5.7v3.4h1.3v-3.4h1.8l-0.1-1.3H126.7z M121.3,61l4.1-5.8V61H121.3z"/>
		<path class="st0" d="M137,53.1c-2.6,0-4.6,2-4.6,4.7s1.9,4.7,4.6,4.7c2.7,0,4.6-2,4.6-4.7S139.7,53.1,137,53.1z M140.3,57.8
			c0,2-1.4,3.5-3.3,3.5c-1.9,0-3.2-1.5-3.2-3.5c0-2,1.4-3.5,3.2-3.5C138.9,54.4,140.3,55.8,140.3,57.8z"/>
	</g>
</g>
</svg>
