<svg id="Layer_1" data-name="Layer 1" xmlns="http://www.w3.org/2000/svg" viewBox="0 0 231.63 29.17">
  <defs>
    <style>
      .cls-1 {
        fill: #fff;
      }
    </style>
  </defs>
  <title>Best&amp;amp;Lloyd_Logotype_white</title>
  <g>
    <path class="cls-1" d="M23.85,18.51A8.14,8.14,0,0,0,22,16.33a5.59,5.59,0,0,0-1.88-1,6.56,6.56,0,0,0,.85-.56,6.09,6.09,0,0,0,1.23-1.15,4.51,4.51,0,0,0,.83-1.48,5.89,5.89,0,0,0,.29-1.8,5.53,5.53,0,0,0-.91-3.28,5.86,5.86,0,0,0-2.36-1.85,9.3,9.3,0,0,0-3-.89c-1-.12-3-.19-4-.19H4.4l.36.24A2.76,2.76,0,0,1,6.34,7.11V29.74c0,.71-.61,1.19-1.16,1.6l-.37.3-.28.25-.25.23H15.2a17.31,17.31,0,0,0,3.66-.4,9.07,9.07,0,0,0,3.21-1.38,7.49,7.49,0,0,0,2.37-2.51A8.17,8.17,0,0,0,25.31,24a11.56,11.56,0,0,0-.4-2.75A10.83,10.83,0,0,0,23.85,18.51Zm-14-1.65h4.66A7.88,7.88,0,0,1,20,18.63a6.92,6.92,0,0,1,2,5.43,6.14,6.14,0,0,1-.58,2.56,5.29,5.29,0,0,1-1.33,1.87,5.58,5.58,0,0,1-2,1.14,8.28,8.28,0,0,1-2.54.39H9.89Zm8.86-3.16a4.47,4.47,0,0,1-1.47.76,5.28,5.28,0,0,1-1.68.27H9.89V6.25h4.48a6.84,6.84,0,0,1,2.05.31,5.41,5.41,0,0,1,1.86.85,4.44,4.44,0,0,1,1.33,1.4,4.22,4.22,0,0,1,.51,2.06A3.5,3.5,0,0,1,18.75,13.7Z" transform="translate(-4.28 -3.35)"/>
    <path class="cls-1" d="M43.58,29.93H35.4V16.8h9.9L46,14.69H35.4V6.23H43A9.84,9.84,0,0,1,47.7,7.55l.35.2L46.4,4.11h-16l.18.21c.15.17.31.32.46.46a2,2,0,0,1,.86,1.69V29.75A2.26,2.26,0,0,1,31,31.49a4,4,0,0,0-.4.42l-.19.21H47l1.2-3.61-.29.16A10.41,10.41,0,0,1,43.58,29.93Z" transform="translate(-4.28 -3.35)"/>
    <path class="cls-1" d="M67.09,17.88a21.64,21.64,0,0,0-3.41-2c-1.35-.63-2.5-1.27-3.36-1.77a13.36,13.36,0,0,1-2.53-1.83,2.84,2.84,0,0,1-1-2.11,4.66,4.66,0,0,1,.39-1.88,4.78,4.78,0,0,1,1.08-1.44,4,4,0,0,1,1.51-.91,6.26,6.26,0,0,1,3.83,0,11.73,11.73,0,0,1,2,.67,8.44,8.44,0,0,1,3.88,3l.32.44-.64-4.2-.06,0a17.89,17.89,0,0,0-3.64-1.6,15.35,15.35,0,0,0-3.94-.49,11.94,11.94,0,0,0-2.91.4A9.31,9.31,0,0,0,56,5.38a7,7,0,0,0-2,2.11,5.57,5.57,0,0,0-.78,3,5.29,5.29,0,0,0,1.09,3.29A12,12,0,0,0,57,16.12a37.2,37.2,0,0,0,3.43,1.93c1.05.53,2.27,1.16,3.38,1.84A12.49,12.49,0,0,1,66.26,22a3.42,3.42,0,0,1,1,2.48A6,6,0,0,1,66.72,27a5.41,5.41,0,0,1-3.36,3.07,7.7,7.7,0,0,1-4.86,0A14.47,14.47,0,0,1,56.16,29a12.64,12.64,0,0,1-4.1-3.87l-.29-.43.51,4.79v.06l.05,0A24.34,24.34,0,0,0,56,31.53a14.3,14.3,0,0,0,4,.82h.4a13.82,13.82,0,0,0,3.39-.43,10.31,10.31,0,0,0,3.38-1.34,7.27,7.27,0,0,0,2.36-2.54,7.88,7.88,0,0,0,1.26-3.78,6.12,6.12,0,0,0-1.09-3.68A11.56,11.56,0,0,0,67.09,17.88Z" transform="translate(-4.28 -3.35)"/>
    <path class="cls-1" d="M74,4.11,72.44,7.79,73,7.45a5.66,5.66,0,0,1,2.92-1.22h6.26V29.76a3.3,3.3,0,0,1-.91,2.16l-.2.22h5.7l-.21-.22A3.19,3.19,0,0,1,85.63,30V6.23h6.24a6.71,6.71,0,0,1,2.94,1.16l.63.37L93.72,4.11Z" transform="translate(-4.28 -3.35)"/>
    <path class="cls-1" d="M117.85,25.15a12.18,12.18,0,0,0,.74-2.59,18.41,18.41,0,0,0,.23-2.87,24.21,24.21,0,0,0-.15-2.71,14,14,0,0,0-.26-2.22l0-.14q0-.19-.06-.36V14H112.6l.45.24c2,1.08,3.16,2.15,3.51,3.15a17.63,17.63,0,0,1,.25,2.89v.89a3.36,3.36,0,0,1-.13,1.13,4.37,4.37,0,0,1-.25,1,2.81,2.81,0,0,1-.22.51,62.71,62.71,0,0,1-4.64-4.28,53,53,0,0,1-4-4.6c.59-.28,1.18-.6,1.75-.91a11.16,11.16,0,0,0,1.91-1.35,7.69,7.69,0,0,0,1.41-1.76,4.65,4.65,0,0,0,.58-2.35,4.63,4.63,0,0,0-.45-2.07,4.73,4.73,0,0,0-1.17-1.61,5.63,5.63,0,0,0-1.73-1,6.3,6.3,0,0,0-2.34-.54h-.12a7.28,7.28,0,0,0-2.4.4,5.76,5.76,0,0,0-2,1.12A5.49,5.49,0,0,0,101.17,9a8.17,8.17,0,0,0,.58,2.88,9.82,9.82,0,0,0,1.2,2.29,11.55,11.55,0,0,0-4.17,3.15A7.71,7.71,0,0,0,97,22.53a10.62,10.62,0,0,0,.75,4,9.59,9.59,0,0,0,2.14,3.18,9.72,9.72,0,0,0,3.32,2.06,11.83,11.83,0,0,0,4.06.7h.24a10.11,10.11,0,0,0,4.91-1.26A12.17,12.17,0,0,0,116,28c.9.71,1.88,1.42,2.92,2.12a33.77,33.77,0,0,0,3.36,2l.2,0,3.6-3.61-.35,0C125,28.69,122.33,28.6,117.85,25.15Zm-16.66-7a6.38,6.38,0,0,1,1.49-1.29,12.71,12.71,0,0,1,1.57-.89,21.42,21.42,0,0,0,1.86,2.51c1,1.16,1.89,2.16,2.76,3.07,1,1.09,2.08,2.09,3,2.92a21.6,21.6,0,0,0,2.46,2,10.56,10.56,0,0,1-2.85,1.9,9,9,0,0,1-3.36.65,8.72,8.72,0,0,1-5.81-2.16,7.58,7.58,0,0,1-1.84-2.31,6.63,6.63,0,0,1-.7-2.95,4.65,4.65,0,0,1,.4-1.87A5.81,5.81,0,0,1,101.19,18.14ZM106,5.61a2.63,2.63,0,0,1,1.21-.28,4.1,4.1,0,0,1,1.43.25,3,3,0,0,1,1,.77,3.22,3.22,0,0,1,.66,1.09,4.37,4.37,0,0,1,.25,1.38,3.15,3.15,0,0,1-.39,1.57,4.07,4.07,0,0,1-1.07,1.12,7.47,7.47,0,0,1-1.49.83l-1.4.64c-.22-.28-.45-.59-.66-.9l-.16-.25-.46-.7a4,4,0,0,1-.4-1,5.26,5.26,0,0,1-.14-1.31,5.43,5.43,0,0,1,.17-1.32,3.42,3.42,0,0,1,.54-1.1A2.42,2.42,0,0,1,106,5.61Z" transform="translate(-4.28 -3.35)"/>
    <path class="cls-1" d="M145.83,30.06H133.09V6.51a4.34,4.34,0,0,1,1.08-2.17l.17-.22h-6.05l.19.22a4.33,4.33,0,0,1,1.2,2.15v22.7a9.84,9.84,0,0,1,0,1.33,4.12,4.12,0,0,1-.3,1.22l-.17.4h19.47a.5.5,0,0,0,.48-.35s.81-2.09,1.2-3l.2-.47-.4.32A6.44,6.44,0,0,1,145.83,30.06Z" transform="translate(-4.28 -3.35)"/>
    <path class="cls-1" d="M151.33,23.12a6.2,6.2,0,0,1-1.54.16h-7.2v-16a3.78,3.78,0,0,1,1.1-2.88l.22-.22h-5.54l.18.22a4.43,4.43,0,0,1,1.29,3.1V22.19a12,12,0,0,1,0,1.34,4.15,4.15,0,0,1-.3,1.2v.43H153l1-2.82-.56.19A19.77,19.77,0,0,1,151.33,23.12Z" transform="translate(-4.28 -3.35)"/>
    <path class="cls-1" d="M181.54,7.75A14.89,14.89,0,0,0,171.64,4h0a13.19,13.19,0,0,0-5.46,1.19,14.51,14.51,0,0,0-4.64,3.17,15.22,15.22,0,0,0-3.12,4.68,14.32,14.32,0,0,0-1.13,5.67,13.32,13.32,0,0,0,1.18,5.56,12.9,12.9,0,0,0,3.16,4.3,14.23,14.23,0,0,0,4.56,2.78,15.87,15.87,0,0,0,5.42,1h0a13.39,13.39,0,0,0,5.48-1.17A14.88,14.88,0,0,0,181.63,28a15.39,15.39,0,0,0,3.09-4.67,14.14,14.14,0,0,0,1.06-5.67,13.06,13.06,0,0,0-4.24-9.89Zm.49,11.7a12.54,12.54,0,0,1-.75,4.29h0a9.51,9.51,0,0,1-2.13,3.31,9.89,9.89,0,0,1-3.32,2.13,11.88,11.88,0,0,1-4.17.76h-.52a5.68,5.68,0,0,1-1.23-.16,11.74,11.74,0,0,1-2.64-1,11.38,11.38,0,0,1-2.65-2.19,11.66,11.66,0,0,1-1.94-2.78,12.83,12.83,0,0,1-1.15-3.25,15.65,15.65,0,0,1-.4-3.55,11.83,11.83,0,0,1,.72-4.33A9.75,9.75,0,0,1,164,9.36a9.2,9.2,0,0,1,3.29-2.13,11.44,11.44,0,0,1,4.12-.77h.22a9.73,9.73,0,0,1,4.25,1.18,12.52,12.52,0,0,1,2.76,2.18,11.11,11.11,0,0,1,1.85,2.84,13.45,13.45,0,0,1,1.15,3.26A18.16,18.16,0,0,1,182,19.45Z" transform="translate(-4.28 -3.35)"/>
    <path class="cls-1" d="M205.64,4.38l-7,12.24-7-12.24a.5.5,0,0,0-.44-.26h-5.66l.32.24a8.67,8.67,0,0,0,.79.49A5.79,5.79,0,0,1,188.9,7l.23.36c.14.21.3.44.44.7l6.57,11.38V30.5a7.79,7.79,0,0,1-.59,1.44l-.1.19h4.86l-.11-.2a7.14,7.14,0,0,1-.58-1.34V19l6.22-10.78.26-.48a14.3,14.3,0,0,1,.75-1.22l.11-.17,0-.09a6,6,0,0,1,2.24-1.91l.55-.25h-3.73A.57.57,0,0,0,205.64,4.38Z" transform="translate(-4.28 -3.35)"/>
    <path class="cls-1" d="M234.8,12.22a13.26,13.26,0,0,0-3.07-4.28,14.3,14.3,0,0,0-9.67-3.82h-9.51l.26.23a4.4,4.4,0,0,1,1.62,3.11v21.4c.14,1.3-1.23,2.55-1.83,3l-.29.23h9.51a14.33,14.33,0,0,0,14.09-14.4A13,13,0,0,0,234.8,12.22Zm-2.67,6.94a11.64,11.64,0,0,1-.78,4.36,9.7,9.7,0,0,1-2.13,3.37,9.4,9.4,0,0,1-3.29,2.31,11.63,11.63,0,0,1-4.2.78H218V6.24h2.26a12.09,12.09,0,0,1,4.82,1A11.11,11.11,0,0,1,228.8,10a12.5,12.5,0,0,1,2.34,4.12A14.53,14.53,0,0,1,232.13,19.16Z" transform="translate(-4.28 -3.35)"/>
  </g>
</svg>
