<svg id="Layer_1" data-name="Layer 1" xmlns="http://www.w3.org/2000/svg" viewBox="0 0 236.47 36">
  <title>Best&amp;amp;Lloyd_Logotype_black</title>
  <path d="M23.45,18.55a8.32,8.32,0,0,0-1.9-2.3,5.47,5.47,0,0,0-1.81-1c.26-.17.51-.33.74-.5a6.73,6.73,0,0,0,1.28-1.22,5,5,0,0,0,.87-1.58,5.86,5.86,0,0,0,.31-2,5.82,5.82,0,0,0-1-3.49,6.15,6.15,0,0,0-2.4-2,10,10,0,0,0-3.14-.87c-1.09-.12-3.16-.19-4.23-.19H4l.19.22A5.5,5.5,0,0,1,5.2,7V29.37a6.32,6.32,0,0,1-.94,3.39L4.11,33H14.42a16.7,16.7,0,0,0,3.82-.43,9.5,9.5,0,0,0,3.36-1.45A8,8,0,0,0,24,28.42a8.23,8.23,0,0,0,.93-4.06,12.43,12.43,0,0,0-.37-3A11.21,11.21,0,0,0,23.45,18.55Zm-4.39-6.3a3.6,3.6,0,0,1-1,1.23,4.7,4.7,0,0,1-1.49.78,5.62,5.62,0,0,1-1.71.28H9V5.83h4.54a8,8,0,0,1,2.15.3A6.42,6.42,0,0,1,17.58,7a4.64,4.64,0,0,1,1.35,1.47,4.14,4.14,0,0,1,.5,2.09A3.57,3.57,0,0,1,19.06,12.25ZM21.28,24.4a6.71,6.71,0,0,1-.51,2.66h0a5.5,5.5,0,0,1-3.44,3.11,8.54,8.54,0,0,1-2.61.4H9V16.94h4.66a8.08,8.08,0,0,1,5.6,1.85C20.59,20,21.28,21.89,21.28,24.4Z"/>
  <path d="M43,5.83A8.17,8.17,0,0,1,44.66,6a11,11,0,0,1,2.81,1.47l.43.3L45.73,3.43H29.57l.13.21a7.17,7.17,0,0,1,.85,3.43V29.62C30.55,32.17,30,33,30,33h16.4l1.35-4.52-.4.47a5.63,5.63,0,0,1-4.18,1.65H34.34V16.94H44.6l.76-2.4h-11V5.83Z"/>
  <path d="M66.32,17.9h0a23.08,23.08,0,0,0-3.56-2.12c-1.28-.62-2.45-1.24-3.48-1.84A14.37,14.37,0,0,1,56.67,12a2.91,2.91,0,0,1-1-2.14,4.67,4.67,0,0,1,.4-1.94,4.87,4.87,0,0,1,1.08-1.49,4.71,4.71,0,0,1,1.56-.94,6.6,6.6,0,0,1,3.91-.08,13.58,13.58,0,0,1,2,.72A11,11,0,0,1,68.83,9.5l.31.44-.63-4.68V5.2l-.18-.1a17.62,17.62,0,0,0-3.78-1.55,14.82,14.82,0,0,0-4-.54,11.6,11.6,0,0,0-3,.43,9.37,9.37,0,0,0-2.84,1.33A7.64,7.64,0,0,0,52.52,7a6.1,6.1,0,0,0-.84,3.19,5.53,5.53,0,0,0,1.17,3.5,11.56,11.56,0,0,0,2.81,2.55,33.27,33.27,0,0,0,3.56,2.05c1.25.62,2.43,1.27,3.5,1.92a12.34,12.34,0,0,1,2.64,2.11,3.6,3.6,0,0,1,1,2.53,6.54,6.54,0,0,1-.51,2.66,5.68,5.68,0,0,1-1.37,1.95,5.57,5.57,0,0,1-2.07,1.22,8,8,0,0,1-2.61.42,6.81,6.81,0,0,1-2.28-.42,12.8,12.8,0,0,1-2.34-1.1A16.06,16.06,0,0,1,53,28.07a15.2,15.2,0,0,1-1.76-1.72l-.78-.9L51,30.36l.16.09a33.85,33.85,0,0,0,3.82,2,10.38,10.38,0,0,0,4.25.87,18.43,18.43,0,0,0,3.94-.43,10.61,10.61,0,0,0,3.53-1.43,7.58,7.58,0,0,0,2.54-2.7,8.26,8.26,0,0,0,1-4.18,6.61,6.61,0,0,0-1.16-3.9A12.09,12.09,0,0,0,66.32,17.9Z"/>
  <path d="M119,27.83a35.14,35.14,0,0,1-3.3-2.28,12.62,12.62,0,0,0,.7-2.65,20.26,20.26,0,0,0,.22-3,27.33,27.33,0,0,0-.14-2.85c-.09-.94-.21-1.89-.34-2.83l0-.33h-4.84l.39.25a6.22,6.22,0,0,1,2.33,3.18,10.35,10.35,0,0,1,.39,3.08c0,.24,0,.54,0,.92s-.07.79-.12,1.16a6.19,6.19,0,0,1-.24,1.09,3,3,0,0,1-.16.4,52.09,52.09,0,0,1-4.43-4.35,52.26,52.26,0,0,1-3.85-4.83c.54-.28,1.08-.58,1.63-.91A11,11,0,0,0,109,12.45a7.33,7.33,0,0,0,1.4-1.86,5.22,5.22,0,0,0,.57-2.46,5.42,5.42,0,0,0-.44-2.19,5,5,0,0,0-1.17-1.67,5.23,5.23,0,0,0-1.72-1.08,6.15,6.15,0,0,0-2.13-.37,6.79,6.79,0,0,0-2.39.42,5.73,5.73,0,0,0-2,1.19A5.63,5.63,0,0,0,99.8,6.31a6,6,0,0,0-.5,2.48,9,9,0,0,0,.57,3A11.13,11.13,0,0,0,101,14.17a11.21,11.21,0,0,0-4.1,3.15,8.44,8.44,0,0,0-1.79,5.46A11.84,11.84,0,0,0,95.84,27,9.9,9.9,0,0,0,98,30.36a9.28,9.28,0,0,0,3.25,2.15,11.06,11.06,0,0,0,4.12.75,9.43,9.43,0,0,0,5-1.33,12.2,12.2,0,0,0,3.51-3.3c.9.74,1.83,1.47,2.78,2.16a32.57,32.57,0,0,0,3.3,2.13l.24.14,3.33-3.44-.62-.17A16,16,0,0,1,119,27.83Zm-16,1.26a8.56,8.56,0,0,1-2.54-1.63A8,8,0,0,1,98.67,25,7,7,0,0,1,98,22a5,5,0,0,1,.37-1.91,6.65,6.65,0,0,1,1-1.67,7,7,0,0,1,1.44-1.33,14.5,14.5,0,0,1,1.43-.88A23.3,23.3,0,0,0,104,18.76c.83,1,1.74,2.12,2.7,3.19s1.93,2.07,2.9,3,1.6,1.54,2.27,2.09A5.82,5.82,0,0,1,109.41,29,8.27,8.27,0,0,1,103,29.09Zm1.22-16.27c-.22-.3-.41-.6-.6-.87s-.41-.67-.6-1a3.78,3.78,0,0,1-.38-1,6,6,0,0,1-.13-1.36,5.1,5.1,0,0,1,.17-1.35,3.12,3.12,0,0,1,.5-1.11,2.45,2.45,0,0,1,.84-.76A2.37,2.37,0,0,1,105.2,5a2.9,2.9,0,0,1,1.28.27,3,3,0,0,1,1,.75,3.34,3.34,0,0,1,.63,1.14,4.29,4.29,0,0,1,.22,1.38,3.12,3.12,0,0,1-.37,1.61,3.83,3.83,0,0,1-1,1.13,8.78,8.78,0,0,1-1.43.87Z"/>
  <path d="M179.16,7.28a14.84,14.84,0,0,0-4.76-2.91,15.65,15.65,0,0,0-5.63-1A13.84,13.84,0,0,0,163,4.59,15.52,15.52,0,0,0,158.26,8,15.83,15.83,0,0,0,155,12.89a15.37,15.37,0,0,0-1.19,6,13.9,13.9,0,0,0,1.24,5.89,14.36,14.36,0,0,0,3.29,4.54,14.82,14.82,0,0,0,4.76,2.92,15.94,15.94,0,0,0,5.66,1A13.79,13.79,0,0,0,174.52,32a15.31,15.31,0,0,0,4.74-3.36,16.1,16.1,0,0,0,3.22-4.94,15.4,15.4,0,0,0,1.19-6,14.26,14.26,0,0,0-1.21-5.89A13.88,13.88,0,0,0,179.16,7.28Zm.37,12.27a12.57,12.57,0,0,1-.78,4.54,9.61,9.61,0,0,1-2.19,3.44,10,10,0,0,1-3.4,2.21,12,12,0,0,1-4.8.78,5.8,5.8,0,0,1-1.26-.17,11.31,11.31,0,0,1-2.72-1.06,11.81,11.81,0,0,1-2.83-2.24,12.77,12.77,0,0,1-2-2.91,14.59,14.59,0,0,1-1.19-3.38,17.33,17.33,0,0,1-.39-3.7,12.4,12.4,0,0,1,.79-4.54A10.11,10.11,0,0,1,161,9.07a9.84,9.84,0,0,1,3.39-2.2,12.12,12.12,0,0,1,4.43-.79h.43a5.33,5.33,0,0,1,1.16.15,11,11,0,0,1,2.79,1.09A11.53,11.53,0,0,1,176,9.56a12.27,12.27,0,0,1,2,2.91,15.34,15.34,0,0,1,1.17,3.4A17.42,17.42,0,0,1,179.53,19.55Z"/>
  <path d="M232.1,12a14.62,14.62,0,0,0-13.35-8.59h-9.11l.16.21a6.78,6.78,0,0,1,1,3.64V29.73a3.41,3.41,0,0,1-1.23,3V33h8.89A14.54,14.54,0,0,0,229,28.62a15.43,15.43,0,0,0,4.34-10.81A13.92,13.92,0,0,0,232.1,12Zm-2.91,7.32a12.64,12.64,0,0,1-.8,4.57h0a10.44,10.44,0,0,1-2.19,3.52,9.9,9.9,0,0,1-3.4,2.29,11.47,11.47,0,0,1-4.41.83h-3.76V5.85h2.15a12.33,12.33,0,0,1,5.08,1,12,12,0,0,1,3.9,2.85,13.05,13.05,0,0,1,2.52,4.3A15.49,15.49,0,0,1,229.19,19.36Z"/>
  <path d="M148.83,23.24h0a7,7,0,0,1-1.59.17h-6.77V6.7c0-.47,0-1,0-1.44a6.89,6.89,0,0,1,.68-1.68l.06-.13h-5.17l.47.19s.9.38.9,2.3V23.78a2.15,2.15,0,0,1-.58,1.75h13.59l1.12-3.17-.74.27A20.22,20.22,0,0,1,148.83,23.24Z"/>
  <path d="M203.49,3.45a.61.61,0,0,0-.53.31L195.7,16.43,188.4,3.76a.61.61,0,0,0-.53-.31h-5.43L184.15,5a8.85,8.85,0,0,1,.75.75c.23.27.45.56.68.86a8.39,8.39,0,0,1,.67,1.09l6.8,11.88v9.78c0,2.25-.86,3.14-1.36,3.47V33h6.57v-.16c-.55-.29-1.43-1.09-1.43-3.23V19.13l6.43-11.25c.46-.78.88-1.44,1.28-2,1.14-1.59,1.62-2.21,1.63-2.21l.17-.22Z"/>
  <path d="M148,29.53l-.29.18c-.57.38-1.29.85-3.87.85H130.74V6.67c0-.23,0-.39,0-.55s0-.34,0-.59a2.59,2.59,0,0,1,.82-1.94l.18-.14h-6.09l.17.14A3.44,3.44,0,0,1,127,6.14V29.78a4.35,4.35,0,0,1-1,3V33H147l1.29-3.62Z"/>
  <path d="M93,3.43H72.52l-2,4.21.44-.33A7.74,7.74,0,0,1,73.54,6a10.75,10.75,0,0,1,1.62-.14h5.73V29.45a5.66,5.66,0,0,1-1,3.36V33h6.07v-.15a3.83,3.83,0,0,1-1.31-3v-24h5.73A7.57,7.57,0,0,1,92,6,13.24,13.24,0,0,1,94.49,7l.35.19Z"/>
</svg>
